<svg viewBox="37.07908163265307 43.64999999999998 210.84183673469389 200.06250000000003" fill="none" xmlns="http://www.w3.org/2000/svg" xmlns:xlink="http://www.w3.org/1999/xlink" overflow="visible" width="210.84183673469389px" height="200.06250000000003px"><g id="Master/Spot Illustrations/Work from Home"><g id="Backdrop" transform="translate(29 36) scale(1 1)"><g id="Backdrop/Triangle"><path id="Background" opacity="0.2" fill-rule="evenodd" clip-rule="evenodd" d="M109.014 23.1646L32.4181 23C27.4953 22.989 24.4074 28.2897 26.8593 32.5393L65.0139 98.6718L103.169 164.803C105.621 169.055 111.775 169.068 114.246 164.828L152.686 98.8593L191.127 32.8923C193.597 28.6518 190.532 23.3391 185.609 23.3281L109.014 23.1646Z" fill="#50E3FF"/></g></g><g id="Texture" opacity="0.644252" transform="translate(39 50) scale(1 1)"><g id="Texture/Random Dots"><g id="Texture"><g id="Decoration 3"><path id="Stroke 20" d="M185.889 9.18531C186.109 8.97154 186.444 8.94202 186.696 9.10039L186.787 9.16859L191.666 13.5509L196.245 9.42057C196.465 9.22289 196.784 9.19768 197.029 9.34687L197.117 9.411L202.19 13.7899L206.165 9.693C206.393 9.45807 206.753 9.42944 207.013 9.61066L207.096 9.67885C207.331 9.90675 207.36 10.2672 207.178 10.5273L207.11 10.61L202.703 15.153C202.487 15.3756 202.15 15.4141 201.893 15.2599L201.8 15.193L196.695 10.7879L192.109 14.9264C191.886 15.1271 191.561 15.1497 191.315 14.9941L191.227 14.9274L186.363 10.5579L182.116 14.6687C181.881 14.8963 181.52 14.9135 181.266 14.7242L181.185 14.6534C180.958 14.4182 180.94 14.0571 181.13 13.8028L181.201 13.7223L185.889 9.18531Z" fill="#26B6E3"/><g id="SCALABLE"><rect id="Rectangle" x="182" width="24" height="24" fill="black" fill-opacity="0.01"/></g></g><g id="Decoration 4"><path id="Fill 14" fill-rule="evenodd" clip-rule="evenodd" d="M140.288 33.7531C141.766 32.1461 140.95 30.6391 139.344 29.8471C139.092 29.8981 138.795 29.9561 138.51 30.0121C138.228 29.8731 137.961 29.7411 137.702 29.6131C136.558 27.1301 134.156 27.7901 133.234 29.7271C132.407 30.1281 131.272 29.7071 130.562 30.5771C130.142 31.0851 129.979 31.6671 130.061 32.3441C130.137 32.9721 130.646 33.4151 130.708 34.0551C130.652 34.3811 130.429 34.6461 130.271 34.9401C129.437 36.4961 130.646 38.3421 132.309 38.0941C132.428 38.0761 132.547 38.0611 132.583 38.0561C133.488 38.3061 133.796 39.0431 134.238 39.6831C134.595 39.8031 134.98 39.9001 135.275 40.1441C135.883 39.9801 136.441 39.8281 136.963 39.6871C137.457 39.2631 137.389 38.5711 137.874 38.1091C138.247 38.1081 138.666 38.1121 139.086 38.1051C140.223 38.0811 140.809 37.5091 140.894 36.3781C140.942 35.7341 140.977 35.1171 140.523 34.5611C140.366 34.3671 140.367 34.0451 140.288 33.7531" fill="#4DDEFF"/><g id="SCALABLE_2"><rect id="Rectangle_2" x="124" y="22" width="24" height="24" fill="black" fill-opacity="0.01"/></g></g><g id="Decoration 5"><path id="Fill 16" fill-rule="evenodd" clip-rule="evenodd" d="M15.8006 33.3616C16.9206 32.1426 16.3026 31.0016 15.0846 30.4006C14.8936 30.4386 14.6676 30.4826 14.4516 30.5256C14.2386 30.4206 14.0356 30.3196 13.8396 30.2226C12.9716 28.3406 11.1516 28.8406 10.4516 30.3096C9.82462 30.6136 8.96462 30.2946 8.42662 30.9536C8.10862 31.3396 7.98462 31.7806 8.04662 32.2936C8.10462 32.7686 8.48962 33.1056 8.53662 33.5906C8.49462 33.8386 8.32462 34.0386 8.20562 34.2616C7.57262 35.4416 8.48962 36.8416 9.74962 36.6526C9.84062 36.6396 9.93162 36.6286 9.95862 36.6246C10.6456 36.8136 10.8776 37.3736 11.2136 37.8576C11.4846 37.9486 11.7766 38.0226 11.9996 38.2076C12.4596 38.0836 12.8836 37.9676 13.2796 37.8606C13.6546 37.5396 13.6026 37.0146 13.9706 36.6656C14.2526 36.6646 14.5716 36.6676 14.8886 36.6616C15.7506 36.6436 16.1966 36.2106 16.2606 35.3516C16.2966 34.8646 16.3226 34.3956 15.9796 33.9736C15.8596 33.8276 15.8606 33.5836 15.8006 33.3616" fill="#FED21C"/><g id="SCALABLE_3"><rect id="Rectangle_3" y="22" width="24" height="24" fill="black" fill-opacity="0.01"/></g></g><g id="Decoration 6"><path id="Fill 7" fill-rule="evenodd" clip-rule="evenodd" d="M93.4708 107.179C94.5438 106.011 93.9518 104.917 92.7848 104.342C92.6018 104.378 92.3858 104.421 92.1798 104.462C91.9748 104.361 91.7808 104.265 91.5928 104.172C90.7618 102.368 89.0178 102.848 88.3488 104.255C87.7468 104.546 86.9238 104.241 86.4088 104.872C86.1028 105.242 85.9848 105.663 86.0438 106.156C86.0988 106.611 86.4688 106.934 86.5138 107.398C86.4738 107.635 86.3108 107.826 86.1968 108.04C85.5908 109.171 86.4688 110.512 87.6758 110.331C87.7618 110.318 87.8488 110.307 87.8748 110.304C88.5338 110.485 88.7558 111.021 89.0768 111.485C89.3358 111.572 89.6168 111.643 89.8298 111.82C90.2718 111.7 90.6768 111.59 91.0558 111.488C91.4148 111.18 91.3658 110.677 91.7178 110.343C91.9888 110.342 92.2928 110.345 92.5978 110.338C93.4228 110.322 93.8498 109.907 93.9108 109.085C93.9468 108.617 93.9718 108.169 93.6418 107.765C93.5278 107.625 93.5288 107.391 93.4708 107.179" fill="#F28DFD"/><g id="SCALABLE_4"><rect id="Rectangle_4" x="78" y="95" width="24" height="24" fill="black" fill-opacity="0.01"/></g></g><g id="Decoration 7"><path id="Sparkle 1" fill-rule="evenodd" clip-rule="evenodd" d="M65.999 112.466C66.0094 112.66 65.9348 112.756 65.8252 112.83C65.6691 112.937 65.5246 113.099 65.3524 113.136C64.5624 113.304 64.3157 113.948 64.003 114.546C63.7046 115.116 63.2938 115.168 63.011 114.595C62.6346 113.834 62.1589 113.27 61.3339 112.945C60.8846 112.769 60.8886 112.217 61.3465 112.04C62.1761 111.719 62.6604 111.168 63.0207 110.389C63.2737 109.84 63.7356 109.887 63.9903 110.436C64.2881 111.077 64.5888 111.67 65.3708 111.88C65.6565 111.957 65.9336 112.173 65.999 112.466" fill="#FED21C"/><g id="SCALABLE_5"><rect id="Rectangle_5" x="52" y="100" width="24" height="24" fill="black" fill-opacity="0.01"/></g></g><g id="Decoration 8"><path id="Stroke 35" d="M65.8131 145.267C66.1766 144.93 66.7261 144.913 67.1076 145.211L67.1993 145.292L71.7061 149.785C72.0972 150.175 72.0981 150.808 71.7082 151.199C71.3482 151.56 70.781 151.589 70.3883 151.285L70.2939 151.202L66.468 147.387L62.0655 151.472C61.7137 151.798 61.1857 151.825 60.8047 151.553L60.7047 151.472L56.545 147.606L51.9011 151.747C51.5278 152.079 50.9726 152.082 50.5973 151.77L50.5075 151.685L46.2718 147.185C45.8933 146.783 45.9125 146.15 46.3147 145.771C46.6859 145.422 47.2537 145.411 47.6366 145.728L47.7282 145.814L51.296 149.606L55.8942 145.508C56.2473 145.194 56.7666 145.173 57.1418 145.442L57.2403 145.522L61.385 149.374L65.8131 145.267Z" fill="#FF67FF"/><g id="SCALABLE_6"><rect id="Rectangle_6" x="47" y="136" width="24" height="24" fill="black" fill-opacity="0.01"/></g></g><g id="Decoration 9"><path id="Sparkle 1_2" fill-rule="evenodd" clip-rule="evenodd" d="M62.999 46.4657C63.0094 46.6604 62.9348 46.7558 62.8252 46.8303C62.6691 46.9375 62.5246 47.0994 62.3524 47.1361C61.5624 47.3042 61.3157 47.9475 61.003 48.5456C60.7046 49.1161 60.2938 49.168 60.011 48.5953C59.6346 47.8335 59.1589 47.2698 58.3339 46.9454C57.8846 46.7693 57.8886 46.2169 58.3465 46.0397C59.1761 45.7187 59.6604 45.1685 60.0207 44.3887C60.2737 43.8402 60.7356 43.887 60.9903 44.4355C61.2881 45.0771 61.5888 45.6701 62.3708 45.88C62.6565 45.9568 62.9336 46.1729 62.999 46.4657" fill="#FED21C"/><g id="SCALABLE_7"><rect id="Rectangle_7" x="49" y="34" width="24" height="24" fill="black" fill-opacity="0.01"/></g></g><g id="Decoration 10"><path id="Sparkle 1_3" fill-rule="evenodd" clip-rule="evenodd" d="M103.998 55.4383C104.017 55.7887 103.883 55.9604 103.685 56.0945C103.404 56.2874 103.144 56.5789 102.834 56.645C101.412 56.9476 100.968 58.1055 100.405 59.1821C99.8683 60.209 99.1289 60.3024 98.6197 59.2715C97.9422 57.9003 97.0861 56.8857 95.601 56.3017C94.7923 55.9848 94.7996 54.9904 95.6237 54.6715C97.1171 54.0936 97.9887 53.1033 98.6373 51.6996C99.0927 50.7124 99.9241 50.7967 100.383 51.7839C100.919 52.9388 101.46 54.0062 102.867 54.3841C103.382 54.5222 103.881 54.9112 103.998 55.4383" fill="#FED21C"/><g id="SCALABLE_8"><rect id="Rectangle_8" x="88" y="43" width="24" height="24" fill="black" fill-opacity="0.01"/></g></g></g></g></g><g id="Window" transform="translate(157 38) scale(1 1)"><g id="Window/Checkmark 2"><g id="Group 17"><path id="Stroke 1 (Stroke)" fill-rule="evenodd" clip-rule="evenodd" d="M8.29641 10.3266C7.20716 10.3266 6.32541 11.2081 6.32541 12.2956V61.3776C6.32541 62.4654 7.2074 63.3476 8.29641 63.3476H73.9644C75.0523 63.3476 75.9344 62.4655 75.9344 61.3776V12.2956C75.9344 11.2079 75.0525 10.3266 73.9644 10.3266H8.29641ZM5.44141 12.2956C5.44141 10.7191 6.71965 9.4426 8.29641 9.4426H73.9644C75.5403 9.4426 76.8184 10.7192 76.8184 12.2956V61.3776C76.8184 62.9537 75.5405 64.2316 73.9644 64.2316H8.29641C6.71942 64.2316 5.44141 62.9538 5.44141 61.3776V12.2956Z" fill="#00A8C4"/><mask id="mask0_723_25770614706b6-7b68-426d-adf7-0bb68fa6ce1f" style="mask-type:luminance" maskUnits="userSpaceOnUse" x="5" y="8" width="72" height="56" fill="#ffffff"><path id="Clip 4" fill-rule="evenodd" clip-rule="evenodd" d="M5 63.7896H76.376V8.9996H5V63.7896Z" fill="#ffffff"/></mask><g mask="url(#mask0_723_25770614706b6-7b68-426d-adf7-0bb68fa6ce1f)"><path id="Fill 3" fill-rule="evenodd" clip-rule="evenodd" d="M10.5391 16.2216H44.2511V14.7496H10.5391V16.2216Z" fill="#00A8C4"/><path id="Fill 5" fill-rule="evenodd" clip-rule="evenodd" d="M10.5391 18.9576H30.2561V17.3406H10.5391V18.9576Z" fill="#00A8C4"/><path id="Fill 6" fill-rule="evenodd" clip-rule="evenodd" d="M10.0859 57.2106H47.9029V24.8666H10.0859V57.2106Z" fill="#00A8C4"/><path id="Fill 7" fill-rule="evenodd" clip-rule="evenodd" d="M49.8926 40.0436H70.4186V24.8666H49.8926V40.0436Z" fill="#00A8C4"/><path id="Fill 8" fill-rule="evenodd" clip-rule="evenodd" d="M49.8945 57.2106H70.3255V42.1586H49.8945V57.2106Z" fill="#00A8C4"/><path id="Fill 9" fill-rule="evenodd" clip-rule="evenodd" d="M12.1899 59.3231C12.1899 59.9041 11.7189 60.3761 11.1379 60.3761C10.5569 60.3761 10.0859 59.9041 10.0859 59.3231C10.0859 58.7421 10.5569 58.2711 11.1379 58.2711C11.7189 58.2711 12.1899 58.7421 12.1899 59.3231" fill="#00A8C4"/><path id="Fill 10" fill-rule="evenodd" clip-rule="evenodd" d="M15.7251 59.3231C15.7251 59.9041 15.2541 60.3761 14.6731 60.3761C14.0921 60.3761 13.6211 59.9041 13.6211 59.3231C13.6211 58.7421 14.0921 58.2711 14.6731 58.2711C15.2541 58.2711 15.7251 58.7421 15.7251 59.3231" fill="#00A8C4"/><path id="Fill 11" fill-rule="evenodd" clip-rule="evenodd" d="M19.2603 59.3231C19.2603 59.9041 18.7893 60.3761 18.2083 60.3761C17.6273 60.3761 17.1562 59.9041 17.1562 59.3231C17.1562 58.7421 17.6273 58.2711 18.2083 58.2711C18.7893 58.2711 19.2603 58.7421 19.2603 59.3231" fill="#00A8C4"/><path id="Fill 12" fill-rule="evenodd" clip-rule="evenodd" d="M40.0385 41.5575C40.0385 48.2475 34.6155 53.6715 27.9245 53.6715C21.2345 53.6715 15.8105 48.2475 15.8105 41.5575C15.8105 34.8675 21.2345 29.4435 27.9245 29.4435C34.6155 29.4435 40.0385 34.8675 40.0385 41.5575" fill="#EFF2F9"/><path id="Stroke 13 (Stroke)" fill-rule="evenodd" clip-rule="evenodd" d="M38.2431 39.7535L29.156 50.5962L20.7988 44.1156L23.7084 40.3636L28.4532 44.043L34.6041 36.7037L38.2431 39.7535Z" fill="#FF67FF"/><path id="Fill 14" fill-rule="evenodd" clip-rule="evenodd" d="M62.4638 32.6835C62.4778 32.8865 62.4038 32.9885 62.2928 33.0685C62.1338 33.1835 61.9888 33.3555 61.8128 33.3985C61.0038 33.5895 60.7638 34.2685 60.4538 34.9005C60.1598 35.5025 59.7378 35.5655 59.4348 34.9725C59.0318 34.1835 58.5308 33.6035 57.6748 33.2815C57.2098 33.1065 57.2018 32.5285 57.6688 32.3335C58.5158 31.9805 59.0028 31.3955 59.3568 30.5725C59.6058 29.9935 60.0808 30.0335 60.3548 30.6015C60.6748 31.2665 60.9958 31.8795 61.8048 32.0835C62.1008 32.1585 62.3898 32.3785 62.4638 32.6835" fill="#EFF2F9"/><path id="Stroke 15 (Stroke)" fill-rule="evenodd" clip-rule="evenodd" d="M55.0573 46.2948C54.6272 46.2948 54.2793 46.643 54.2793 47.0718V52.8948C54.2793 53.3236 54.6272 53.6718 55.0573 53.6718H65.8133C66.2422 53.6718 66.5903 53.3237 66.5903 52.8948V47.0718C66.5903 46.6429 66.2422 46.2948 65.8133 46.2948H55.0573ZM53.7793 47.0718C53.7793 46.3666 54.3514 45.7948 55.0573 45.7948H65.8133C66.5184 45.7948 67.0903 46.3667 67.0903 47.0718V52.8948C67.0903 53.5999 66.5184 54.1718 65.8133 54.1718H55.0573C54.3514 54.1718 53.7793 53.6 53.7793 52.8948V47.0718Z" fill="#C2F5FF"/><path id="Fill 16" fill-rule="evenodd" clip-rule="evenodd" d="M53.7793 51.8746H66.5903V50.7136H53.7793V51.8746Z" fill="#C2F5FF"/></g></g></g></g><g id="Pet" transform="translate(199 186) scale(1 1)"><g id="Pet/Black Cat"><g id="Cat 1"><path id="Fill 36" fill-rule="evenodd" clip-rule="evenodd" d="M17.4456 51.2485C17.4986 51.6145 17.5506 51.9805 17.6006 52.3485C17.6646 52.8105 17.7226 53.3025 17.5316 53.7285C17.2146 54.4365 16.3646 54.6895 15.7086 55.1025C15.5976 55.1725 15.4866 55.2525 15.4216 55.3655C15.2776 55.6195 15.4176 55.9595 15.6526 56.1325C15.8876 56.3065 16.1886 56.3545 16.4776 56.3975C17.7196 56.5865 18.7796 56.8915 20.0496 56.8715C21.4306 56.8515 22.9466 56.7935 24.2756 56.3765C25.1466 56.1615 26.0156 55.8615 26.9116 55.8965C27.3136 55.9135 27.7116 55.9975 28.1136 56.0025C28.9476 56.0145 29.7806 55.6695 30.3626 55.0725C30.9456 54.4775 31.2696 53.6365 31.2386 52.8035C31.1856 51.3725 30.1706 50.1705 29.7706 48.7965C29.3926 47.4965 29.5806 46.1105 29.6866 44.7615C29.7916 43.4115 29.7886 41.9725 29.0906 40.8115C28.6616 40.0985 27.9806 39.5385 27.1966 39.2555C26.4106 38.9725 25.5566 38.9655 24.7206 38.9535C21.9566 38.9145 19.0786 38.8095 16.5596 39.9505C16.2486 40.0915 15.9226 40.2735 15.7896 40.5895C15.4736 41.3335 15.9466 42.4735 16.0916 43.2175C16.2886 44.2395 16.4766 45.2645 16.6556 46.2895C16.9436 47.9385 17.2066 49.5915 17.4456 51.2485" fill="#7362a5"/><path id="Fill 37" fill-rule="evenodd" clip-rule="evenodd" d="M16.1567 22.6997C16.9957 22.9117 17.9267 22.8237 18.6317 22.4317C18.8177 22.3287 18.9287 22.1607 18.9357 21.9307C18.9457 21.6357 18.8017 21.5127 18.5387 21.6637C17.8317 22.0677 17.1017 22.0427 16.3397 21.8797C15.9567 21.7977 15.6547 21.6117 15.3987 21.3347C15.2047 21.1227 15.0317 20.8897 14.8397 20.6777C14.7027 20.5257 14.5217 20.4237 14.3267 20.5337C14.1147 20.6537 14.1167 20.8587 14.1957 21.0727C14.5097 21.9357 15.2827 22.4797 16.1567 22.6997" fill="#FAA6DC"/><path id="Fill 38" fill-rule="evenodd" clip-rule="evenodd" d="M15.9169 16.9653C15.3929 16.8193 15.2439 16.5883 15.4979 16.1103C15.8349 15.4743 16.2039 14.8553 16.5619 14.2303C16.6639 14.0503 16.7639 13.8663 17.0269 13.9183C17.2879 13.9703 17.3059 14.1763 17.3489 14.3793C17.5089 15.1453 17.5399 15.9243 17.6249 16.6983C17.6799 17.2023 17.7139 17.1983 17.3839 17.2113C16.7549 17.2483 16.3429 17.0843 15.9169 16.9653" fill="#F376DA"/><path id="Fill 39" fill-rule="evenodd" clip-rule="evenodd" d="M19.5098 26.4009C19.9748 26.3369 20.2918 26.0369 20.6218 25.7609C20.6888 25.7059 20.6538 25.6269 20.6058 25.5689C20.5438 25.4939 20.4598 25.4859 20.3768 25.5239C20.2578 25.5789 20.1368 25.6319 20.0258 25.7029C19.5968 25.9709 19.2358 25.8349 18.8978 25.5279C18.7288 25.3759 18.5568 25.2269 18.3918 25.0719C18.2658 24.9539 18.0908 24.8959 17.9708 24.9759C17.8308 25.0709 17.9308 25.2429 18.0028 25.3649C18.3428 25.9479 18.8478 26.2919 19.5098 26.4009" fill="#F376DA"/><path id="Fill 40" fill-rule="evenodd" clip-rule="evenodd" d="M18.9829 23.7271C18.9959 23.8001 19.0069 23.9081 19.0349 24.0101C19.0989 24.2451 19.2649 24.3951 19.4979 24.3831C19.7549 24.3711 19.8619 24.1521 19.8609 23.9231C19.8599 23.6871 19.8559 23.4491 19.8449 23.2121C19.8359 23.0261 19.7549 22.8371 19.5139 22.8041C19.2789 22.7721 19.1999 22.9331 19.1269 23.1031C19.0449 23.2901 18.9959 23.4871 18.9829 23.7271" fill="#F376DA"/><path id="Fill 41" fill-rule="evenodd" clip-rule="evenodd" d="M13.5551 26.896H13.5561C13.5561 26.898 13.5581 26.899 13.5581 26.901L13.5551 26.896Z" fill="#FCB332"/><path id="Fill 42" fill-rule="evenodd" clip-rule="evenodd" d="M36.8188 42.7622C36.5828 42.2072 34.5728 37.1962 29.8568 33.8762C28.8268 33.1522 27.8438 32.3622 26.7848 31.6812C25.9548 31.1472 24.8998 30.7312 24.4848 29.7712C24.2578 29.2472 24.1678 28.6762 24.0798 28.1132C21.5108 28.7912 18.8028 28.5862 16.1538 28.3772C16.0038 29.3722 14.2128 38.9502 15.1558 41.2092C15.3378 41.6432 15.6778 41.9822 15.8268 42.4272C15.8468 42.4532 15.8668 42.4792 15.8868 42.5042C15.9898 42.6162 16.0938 42.7282 16.1948 42.8412C16.6728 43.3722 17.8758 43.6842 18.4768 44.0462C18.4768 44.0462 19.5708 54.7852 19.3588 54.9042C18.7318 55.2522 17.8078 55.4792 17.2748 55.9282C17.1268 56.0532 17.0158 56.2382 17.0268 56.4312C17.0468 56.7532 17.3808 56.8482 17.6478 56.8662C20.3398 57.0452 23.0398 56.9642 25.7348 56.9082C28.1378 56.8572 30.6558 56.9472 33.0148 56.4282C33.4278 56.3372 33.8508 56.2182 34.1738 55.9462C34.4158 55.7412 41.0018 48.5622 41.5728 36.8512C41.6998 34.2402 41.6548 31.6162 41.2828 29.0272C40.8288 25.8612 39.8488 22.7372 37.4578 20.5032C37.0968 20.1662 36.7108 19.8562 36.2838 19.6192C35.6198 19.2492 34.9148 19.1752 34.2878 19.6282C33.7218 20.0362 33.2828 21.1002 33.4298 21.7592C33.4188 21.8412 33.4018 21.9232 33.3968 22.0062C33.3138 23.3672 35.6478 28.3182 36.0608 29.8492C36.9048 32.9752 37.4838 36.1722 37.7868 39.3962C37.8398 39.9532 38.0208 43.0232 36.8858 42.8812C36.8738 42.8792 36.8508 42.8372 36.8188 42.7622" fill="#2C2571"/><path id="Fill 43" fill-rule="evenodd" clip-rule="evenodd" d="M14.3254 20.5337C14.5204 20.4237 14.7014 20.5257 14.8384 20.6777C15.0314 20.8897 15.2034 21.1227 15.3974 21.3347C15.6524 21.6117 15.9554 21.7977 16.3384 21.8797C17.1004 22.0427 17.8304 22.0677 18.5374 21.6637C18.8004 21.5127 18.9444 21.6357 18.9344 21.9307C18.9274 22.1607 18.8164 22.3287 18.6314 22.4317C17.1864 23.2357 14.8124 22.7677 14.1944 21.0727C14.1164 20.8587 14.1134 20.6537 14.3254 20.5337M17.9714 24.9757C18.0904 24.8957 18.2664 24.9527 18.3914 25.0707C18.5564 25.2267 18.7294 25.3757 18.8974 25.5277C19.2354 25.8347 19.5974 25.9707 20.0264 25.7017C20.1374 25.6327 20.2584 25.5787 20.3774 25.5237C20.4604 25.4857 20.5434 25.4937 20.6054 25.5687C20.6544 25.6267 20.6894 25.7057 20.6214 25.7617C20.2924 26.0367 19.9754 26.3367 19.5104 26.4007C18.8484 26.2917 18.3434 25.9477 18.0024 25.3647C17.9314 25.2427 17.8314 25.0707 17.9714 24.9757M24.9064 17.8847C24.5014 17.8167 23.9584 17.7327 23.4294 17.5757C23.1204 17.4847 23.0714 17.3127 23.1594 16.9997C23.3884 16.1817 23.9284 15.5127 24.2044 14.7197C24.2514 14.5847 24.3344 14.4157 24.5234 14.4227C24.6964 14.4297 24.7984 14.5507 24.8634 14.7047C25.1884 15.4737 25.5594 16.2287 25.7454 17.0497C25.9194 17.8167 25.8674 17.8707 24.9064 17.8847M19.8594 23.9237C19.8604 24.1517 19.7534 24.3707 19.4954 24.3837C19.2634 24.3947 19.0964 24.2447 19.0334 24.0107C19.0054 23.9077 18.9934 23.8007 18.9814 23.7267C18.9934 23.4867 19.0434 23.2907 19.1254 23.1027C19.1984 22.9327 19.2774 22.7717 19.5124 22.8047C19.7534 22.8377 19.8344 23.0257 19.8434 23.2127C19.8534 23.4487 19.8584 23.6867 19.8594 23.9237M17.3834 17.2117C16.7544 17.2487 16.3424 17.0847 15.9154 16.9657C15.3914 16.8197 15.2424 16.5887 15.4964 16.1097C15.8344 15.4737 16.2024 14.8547 16.5604 14.2297C16.6624 14.0507 16.7634 13.8667 17.0264 13.9187C17.2864 13.9707 17.3044 14.1767 17.3474 14.3797C17.5084 15.1447 17.5384 15.9247 17.6234 16.6987C17.6784 17.2027 17.7124 17.1987 17.3834 17.2117M12.7504 25.4157C13.0944 26.3047 13.6624 27.0987 14.3214 27.7837C15.4224 28.9297 17.4824 28.9507 18.9394 29.1907C20.6444 29.4717 22.4394 29.4047 24.1164 28.9247C24.9144 28.6957 25.5924 28.4647 26.1424 27.8277C26.5854 27.3147 26.9234 26.7177 27.1604 26.0837C27.8294 24.2977 27.7574 22.2657 27.3064 20.4377C27.1384 19.7527 26.5784 16.7117 26.3274 15.9077C25.9154 14.5877 25.4994 13.2687 24.9974 11.9797C24.9344 11.8197 24.8844 11.6277 24.6904 11.6257C24.5144 11.6247 24.4614 11.8177 24.3974 11.9567C23.6004 13.6797 22.8074 15.4047 22.0114 17.1287C21.7514 17.6907 21.6784 18.1187 21.0014 18.1197C20.3884 18.1207 19.6824 17.9397 19.1364 17.6657C18.6934 17.4417 18.6854 17.2367 18.6324 16.7257C18.6314 16.7147 18.6284 16.7027 18.6274 16.6897C18.4324 14.9247 18.2384 13.1587 18.0404 11.3917C18.0254 11.2567 18.0784 11.0647 17.9104 11.0117C17.7474 10.9597 17.6094 11.0907 17.5134 11.2107C17.0144 11.8327 13.5574 16.1537 12.4574 20.6797C12.1374 21.9947 12.2254 23.3867 12.5324 24.7077C12.5884 24.9507 12.6614 25.1857 12.7504 25.4157" fill="#2C2571"/><path id="Fill 44" fill-rule="evenodd" clip-rule="evenodd" d="M25.7461 17.0493C25.5591 16.2293 25.1891 15.4743 24.8641 14.7043C24.7991 14.5503 24.6961 14.4293 24.5231 14.4223C24.3341 14.4153 24.2521 14.5843 24.2041 14.7193C23.9291 15.5133 23.3891 16.1823 23.1601 16.9993C23.0721 17.3133 23.1211 17.4843 23.4291 17.5753C23.9581 17.7333 24.5011 17.8173 24.9061 17.8843C25.8681 17.8703 25.9201 17.8173 25.7461 17.0493" fill="#F376DA"/><path id="Fill 45" fill-rule="evenodd" clip-rule="evenodd" d="M15.5103 29.8921C16.5143 30.3481 17.5933 30.4331 18.6713 30.5201C19.1973 30.5631 19.7243 30.5931 20.2513 30.6271C20.7183 30.6591 20.8493 30.5101 20.7873 30.0751C20.7513 29.8261 20.5833 29.8081 20.4003 29.7891C19.6953 29.7181 18.9883 29.6651 18.2853 29.5751C17.3823 29.4571 16.4993 29.2251 15.6133 29.0191L15.5093 29.0251C15.4623 29.3021 15.3033 29.5771 15.4793 29.8621C15.4943 29.8671 15.5043 29.8771 15.5103 29.8921" fill="#F376DA"/><path id="Fill 46" fill-rule="evenodd" clip-rule="evenodd" d="M24.6031 30.1304C24.6481 30.0334 24.6991 29.9384 24.7381 29.8394C24.8431 29.5764 24.7111 29.3754 24.4301 29.3924C23.9881 29.4174 23.5511 29.4914 23.1191 29.5894C22.7451 29.6744 22.8541 29.9774 22.8731 30.2024C22.8931 30.4674 23.1231 30.3664 23.2701 30.3484C23.6921 30.2954 24.1111 30.2224 24.5321 30.1564C24.5561 30.1484 24.5791 30.1394 24.6031 30.1304" fill="#F376DA"/><path id="Fill 47" fill-rule="evenodd" clip-rule="evenodd" d="M21.7422 30.3364C21.9262 30.3244 22.1602 30.3564 22.1632 30.0734C22.1672 29.7894 21.9362 29.8014 21.7452 29.8074C21.5692 29.8134 21.3602 29.8154 21.3642 30.0804C21.3672 30.3334 21.5322 30.3704 21.7422 30.3364" fill="#F376DA"/><path id="Fill 48" fill-rule="evenodd" clip-rule="evenodd" d="M23.6596 23.7622C22.7946 23.7632 21.9116 23.4522 21.3236 22.9012C21.1686 22.7552 21.1016 22.5652 21.1506 22.3412C21.2136 22.0512 21.3826 21.9682 21.6006 22.1772C22.1876 22.7412 22.9026 22.8952 23.6806 22.9212C24.0726 22.9352 24.4116 22.8282 24.7256 22.6212C24.9666 22.4632 25.1896 22.2802 25.4286 22.1192C25.5976 22.0062 25.7986 21.9502 25.9606 22.1062C26.1376 22.2742 26.0846 22.4722 25.9576 22.6602C25.4426 23.4202 24.5596 23.7612 23.6596 23.7622" fill="#FAA6DC"/><path id="Stroke 49 (Stroke)" fill-rule="evenodd" clip-rule="evenodd" d="M26.8918 42.1548C26.9932 42.2484 26.9995 42.4066 26.9058 42.508C25.4839 44.0478 24.8503 45.5045 24.6958 46.823C24.5411 48.1429 24.8636 49.3488 25.3953 50.3901C25.9278 51.4329 26.6672 52.3044 27.3336 52.9467C28.0032 53.5922 28.5848 53.9927 28.7888 54.1003C28.9038 54.1609 28.9531 54.2995 28.9023 54.4191C28.8515 54.5387 28.7175 54.5995 28.5941 54.5589C28.1899 54.426 27.5172 54.3393 26.6907 54.3041C25.8709 54.2693 24.921 54.2859 23.9745 54.3498C23.0279 54.4138 22.0896 54.5249 21.2926 54.6778C20.4869 54.8322 19.8539 55.0243 19.4973 55.2371C19.3787 55.3078 19.2252 55.2691 19.1545 55.1505C19.0837 55.032 19.1225 54.8785 19.2411 54.8077C19.6779 54.547 20.3853 54.3426 21.1984 54.1867C22.0202 54.0291 22.9794 53.916 23.9408 53.851C24.9024 53.786 25.871 53.7688 26.712 53.8046C27.0308 53.8181 27.3345 53.8394 27.6144 53.8692C27.4185 53.7065 27.2061 53.5183 26.9866 53.3067C26.2934 52.6386 25.5148 51.7236 24.95 50.6175C24.3845 49.5099 24.0305 48.2046 24.1992 46.7648C24.3681 45.3236 25.058 43.772 26.5385 42.1688C26.6322 42.0674 26.7904 42.0611 26.8918 42.1548Z" fill="#CDD6F2"/><path id="Stroke 50 (Stroke)" fill-rule="evenodd" clip-rule="evenodd" d="M11.0785 21.7503C11.227 21.5175 11.5361 21.4491 11.7689 21.5976L13.8229 22.9076C14.0557 23.0561 14.1241 23.3652 13.9756 23.598C13.8271 23.8309 13.518 23.8992 13.2852 23.7507L11.2312 22.4407C10.9984 22.2922 10.93 21.9831 11.0785 21.7503Z" fill="#2C2571"/><path id="Stroke 51 (Stroke)" fill-rule="evenodd" clip-rule="evenodd" d="M13.888 24.6245C13.9251 24.8982 13.7333 25.1501 13.4597 25.1871L11.7547 25.4181C11.481 25.4552 11.2292 25.2634 11.1921 24.9898C11.155 24.7162 11.3468 24.4643 11.6204 24.4272L13.3254 24.1962C13.5991 24.1591 13.851 24.3509 13.888 24.6245Z" fill="#2C2571"/><path id="Stroke 52 (Stroke)" fill-rule="evenodd" clip-rule="evenodd" d="M30.893 23.3459C30.9787 23.6084 30.8355 23.8907 30.573 23.9765L28.257 24.7335C27.9946 24.8193 27.7122 24.6761 27.6264 24.4136C27.5406 24.1511 27.6839 23.8688 27.9464 23.783L30.2624 23.026C30.5248 22.9402 30.8072 23.0834 30.893 23.3459Z" fill="#2C2571"/><path id="Stroke 53 (Stroke)" fill-rule="evenodd" clip-rule="evenodd" d="M27.3592 25.748C27.4633 25.4923 27.755 25.3692 28.0108 25.4733L29.6038 26.1213C29.8596 26.2253 29.9826 26.5171 29.8785 26.7728C29.7745 27.0286 29.4828 27.1516 29.227 27.0476L27.634 26.3996C27.3782 26.2955 27.2552 26.0038 27.3592 25.748Z" fill="#2C2571"/><path id="Fill 54" fill-rule="evenodd" clip-rule="evenodd" d="M14.5917 25.98C15.6237 26.127 16.2347 25.832 16.4417 25.086C16.6827 24.22 16.1287 23.295 15.1517 22.932C14.3877 22.649 13.6277 22.96 13.2327 23.719C12.7157 24.713 13.3717 25.806 14.5917 25.98" fill="#F376DA"/><path id="Fill 55" fill-rule="evenodd" clip-rule="evenodd" d="M24.4374 27.395C25.4684 27.541 26.0804 27.247 26.2874 26.5C26.5284 25.634 25.9744 24.71 24.9974 24.347C24.2334 24.064 23.4734 24.375 23.0784 25.134C22.5614 26.128 23.2174 27.22 24.4374 27.395" fill="#F376DA"/></g></g></g><g id="Chairs" transform="translate(90 124) scale(1 1)"><g id="Chairs/Chair"><g id="Chair"><path id="Fill 9" fill-rule="evenodd" clip-rule="evenodd" d="M50.3701 118.47C49.5092 118.47 48.7593 117.806 48.6419 116.893L41.3399 60.1054H10.7826L3.59365 116.889C3.46777 117.886 2.59089 118.586 1.63508 118.453C0.679257 118.322 0.00719786 117.41 0.133076 116.413L7.52146 58.0499C7.63561 57.1466 8.37594 56.47 9.25175 56.47H42.8665C43.7412 56.47 44.4805 57.1444 44.5968 58.0466L52.1025 116.41C52.2294 117.406 51.5595 118.32 50.6037 118.453C50.5258 118.464 50.4469 118.47 50.3701 118.47" fill="#A12BB6"/><g id="Group 3"><path id="Fill 1" fill-rule="evenodd" clip-rule="evenodd" d="M72.3701 118.47C71.5092 118.47 70.7593 117.806 70.6419 116.893L63.3399 60.1054H32.7826L25.5936 116.889C25.4678 117.886 24.5909 118.586 23.6351 118.453C22.6793 118.322 22.0072 117.41 22.1331 116.413L29.5215 58.0499C29.6356 57.1466 30.3759 56.47 31.2518 56.47H64.8665C65.7412 56.47 66.4805 57.1444 66.5968 58.0466L74.1025 116.41C74.2294 117.406 73.5595 118.32 72.6037 118.453C72.5258 118.464 72.4469 118.47 72.3701 118.47" fill="#974CCD"/></g><g id="Group 6"><path id="Fill 4" fill-rule="evenodd" clip-rule="evenodd" d="M17.2172 1.00162C20.8762 1.00061 24.5342 1.00061 28.1932 0.9996C31.8152 0.9996 35.5072 1.00968 38.9522 2.13517C42.3982 3.26066 45.6202 5.70728 46.7502 9.17652C47.5902 11.7583 47.1762 14.4762 47.3512 17.1346C47.5122 19.5913 48.2762 22.0238 48.7102 24.4593C49.6722 29.8468 51.1282 35.1444 53.0582 40.2625C54.5402 44.1917 56.3992 48.15 59.5922 50.8528C61.7622 52.6883 64.6322 54.081 65.5282 56.7909C65.6322 57.1055 65.6922 57.4877 65.4752 57.7368C64.3392 59.0378 60.3672 58.9995 58.8972 58.9995C50.1492 58.8008 41.4012 58.6021 32.6532 58.4035C29.8152 58.3389 26.9492 58.2713 24.2002 57.5593C20.0812 56.4934 13.5929 56.9002 10.0689 54.5C9.00793 53.7769 7.93194 53.0407 7.10694 52.0544C3.90093 48.2221 6.48824 40.6932 6.39524 35.8877C6.24224 27.9709 6.09024 20.0401 6.71024 12.1476C6.87024 10.1104 7.08924 8.047 7.83024 6.14497C8.57124 4.24193 9.90224 2.49218 11.7582 1.67126C13.2492 1.01372 14.9312 1.00162 16.5582 1.00162H17.2172Z" fill="#771F98"/></g><path id="Fill 7" fill-rule="evenodd" clip-rule="evenodd" d="M15.8533 58.1061C9.37029 58.1061 2.42629 54.5571 1.43129 48.1511C0.100286 39.5841 -0.228714 31.2871 0.142286 23.6731C0.563286 15.0621 4.67429 7.0511 11.4443 1.7131C11.4443 1.7131 15.5323 19.5291 10.3913 44.1181C7.36216 60.7936 30.9297 53.1944 43.5384 55.4198C50.1999 56.5955 50.4533 59 50.4533 59L15.8533 58.1061Z" fill="#A12BB6"/></g></g></g><g id="Master/Character/Sitting" transform="translate(51 6) scale(1 1)"><g id="Master/Character/Sitting"><g id="Lower Body/Sitting" transform="translate(32 113) scale(1 1)"><g id="Lower Body/Sitting/Crossed"><g id="Group 87"><path id="Fill 1" fill-rule="evenodd" clip-rule="evenodd" d="M85.6831 104.701L86.1127 102.791L87 98.8457L78.937 97L78.6057 101.072L78.4504 102.973L78 108.513L84.4894 110L85.6831 104.701Z" fill="#cdd6f2"/><path id="Fill 2" fill-rule="evenodd" clip-rule="evenodd" d="M100.813 89.9915L99.6174 86L92 88.1297L93.7219 91.9741L94.5257 93.7694L96.8691 99L103 97.2863L101.392 91.9237L100.813 89.9915Z" fill="#cdd6f2"/><g id="Group 13"><path id="Fill 3" fill-rule="evenodd" clip-rule="evenodd" d="M77.1499 103.846C77.1499 103.846 77.08 86.6706 77.4836 81.0158C77.7275 77.5756 78.2416 74.1492 78.7379 70.7407C78.9506 69.2748 80.7124 63.1521 79.5337 62.1649C78.6207 61.4003 49.9416 62.8288 45.5024 62C45.2489 61.9527 29.1484 33 29.1484 33H47.0546C47.0546 33 60.8453 40.8066 63.0816 41.3042C83.843 45.9224 89.6172 52.1173 90.7789 53.2538C92.2732 54.7118 92.6986 58.2757 92.4982 62.8009C91.8951 76.4044 85.6199 105.629 85.6199 105.629L77.1499 103.846Z" fill="#5736AE"/><path id="Fill 5" fill-rule="evenodd" clip-rule="evenodd" d="M96.0576 123L73.4435 118.24C73.3377 117.885 73.3329 117.412 73.3991 116.863C73.643 114.832 74.8661 111.766 75.5523 109.815C75.6345 109.586 75.7073 109.375 75.7697 109.18C75.8755 108.852 75.9559 108.577 75.9956 108.372C76.3113 106.728 77.6478 107.302 77.6478 107.302C79.4843 110.132 82.7519 107.156 84.0431 108.63C84.0431 108.63 84.096 108.689 84.2122 108.833C84.32 108.964 84.4807 109.167 84.7038 109.459C85.0242 109.876 85.4713 110.48 86.0715 111.323C87.5413 113.391 90.3797 115.15 92.7616 116.836C93.065 117.049 93.3439 117.259 93.6019 117.463C93.7976 117.619 93.9809 117.771 94.153 117.921C96.0472 119.569 96.5028 120.858 96.4952 121.725C96.4895 122.557 96.0576 123 96.0576 123" fill="#FF67FF"/><path id="Fill 7" fill-rule="evenodd" clip-rule="evenodd" d="M94.1537 117.921C93.4779 118.283 91.9958 118.981 90.957 118.764C90.9116 118.754 90.8653 118.742 90.8218 118.728C90.1006 118.51 87.6724 116.557 85.7215 114.835C84.6033 113.847 83.5929 112.894 82.8774 112.15C81.7034 110.932 81.5371 110.525 81.5314 110.267C81.5125 109.292 83.1137 108.951 84.213 108.833C84.3207 108.963 84.4823 109.166 84.7045 109.458C83.349 109.555 82.1827 109.907 82.1694 110.244C82.2422 110.548 83.3746 111.897 86.2225 114.404C88.3955 116.317 90.4939 117.935 90.9995 118.087C91.6839 118.293 92.8342 117.846 93.6026 117.463C93.7992 117.618 93.9817 117.772 94.1537 117.921" fill="#432C82"/><path id="Fill 9" fill-rule="evenodd" clip-rule="evenodd" d="M96.0575 123L73.4444 118.24C73.3376 117.885 73.3329 117.412 73.399 116.863L96.4961 121.725C96.4885 122.556 96.0575 123 96.0575 123" fill="#7E4DCD"/><path id="Fill 11" fill-rule="evenodd" clip-rule="evenodd" d="M75.7512 118.726L75.0801 118.584C75.9043 117.923 76.7673 116.826 77.0234 115.051C77.3637 112.69 76.3259 110.832 75.5527 109.814C75.634 109.587 75.7077 109.373 75.7701 109.18C76.6189 110.194 77.9734 112.309 77.5669 115.136C77.3231 116.831 76.5555 117.973 75.7512 118.726" fill="#432C82"/></g><g id="Group 59"><g id="Group 16"><mask id="mask0_723_2415154ea3deb-7b07-4d5e-8ab8-e2a5c336f430" style="mask-type:luminance" maskUnits="userSpaceOnUse" x="28" y="33" width="65" height="74" fill="#ffffff"><path id="Clip 15" fill-rule="evenodd" clip-rule="evenodd" d="M40.6437 33.521C34.7061 33.5308 29.1038 33.7716 28.9117 34.6339V34.6339C27.3997 41.4251 26.9899 50.7482 41.5283 58.0416V58.0416C44.3214 59.4417 47.3086 60.3386 50.3522 60.9463V60.9463C55.02 61.8768 59.7678 62.2596 64.4667 63.0124V63.0124C67.5772 63.5117 71.2314 63.3065 74.1517 63.1012V63.1012C76.8506 62.9128 78.923 62.7233 79.3592 63.0894V63.0894C80.5349 64.0741 78.7799 70.1815 78.567 71.6428V71.6428C78.0724 75.0448 77.5599 78.4617 77.3169 81.8923V81.8923C76.9156 87.535 76.9834 104.668 76.9834 104.668V104.668L85.4259 106.445C85.4259 106.445 91.68 77.2934 92.281 63.7238V63.7238C92.4817 59.2108 92.0568 55.6558 90.5675 54.2005V54.2005C89.4097 53.0668 87.6406 46.8873 66.9499 42.2796V42.2796C64.721 41.7843 54.728 33.8002 54.728 33.8002V33.8002C54.728 33.8002 48.0424 33.5318 41.4746 33.521V33.521" fill="#ffffff"/></mask><g mask="url(#mask0_723_2415154ea3deb-7b07-4d5e-8ab8-e2a5c336f430)"><path id="Fill 14" fill-rule="evenodd" clip-rule="evenodd" d="M97.5558 103.599C94.042 103.429 89.8283 100.163 88.8335 96.9583C88.6159 96.2587 88.4379 95.5039 89.037 94.9465C89.785 94.2499 90.6846 94.4541 91.4119 94.9425C93.7792 96.5311 95.9298 98.459 98.689 99.4003C99.9005 99.8137 100.455 101.076 100.013 102.38C99.6028 103.588 98.413 103.54 97.5558 103.599" fill="#FED21C"/></g></g><g id="Group 19"><mask id="mask1_723_2415154ea3deb-7b07-4d5e-8ab8-e2a5c336f430" style="mask-type:luminance" maskUnits="userSpaceOnUse" x="28" y="33" width="65" height="74" fill="#ffffff"><path id="Clip 18" fill-rule="evenodd" clip-rule="evenodd" d="M40.6437 33.521C34.7061 33.5308 29.1038 33.7716 28.9117 34.6339V34.6339C27.3997 41.4251 26.9899 50.7482 41.5283 58.0416V58.0416C44.3214 59.4417 47.3086 60.3386 50.3522 60.9463V60.9463C55.02 61.8768 59.7678 62.2596 64.4667 63.0124V63.0124C67.5772 63.5117 71.2314 63.3065 74.1517 63.1012V63.1012C76.8506 62.9128 78.923 62.7233 79.3592 63.0894V63.0894C80.5349 64.0741 78.7799 70.1815 78.567 71.6428V71.6428C78.0724 75.0448 77.5599 78.4617 77.3169 81.8923V81.8923C76.9156 87.535 76.9834 104.668 76.9834 104.668V104.668L85.4259 106.445C85.4259 106.445 91.68 77.2934 92.281 63.7238V63.7238C92.4817 59.2108 92.0568 55.6558 90.5675 54.2005V54.2005C89.4097 53.0668 87.6406 46.8873 66.9499 42.2796V42.2796C64.721 41.7843 54.728 33.8002 54.728 33.8002V33.8002C54.728 33.8002 48.0424 33.5318 41.4746 33.521V33.521" fill="#ffffff"/></mask><g mask="url(#mask1_723_2415154ea3deb-7b07-4d5e-8ab8-e2a5c336f430)"><path id="Fill 17" fill-rule="evenodd" clip-rule="evenodd" d="M90.5004 71.6755C90.961 69.4643 92.6934 68.4816 94.7546 68.3208C97.3772 68.1166 99.0267 69.5748 99.656 72.2931C99.9273 73.4672 99.8557 74.6098 99.5335 75.7277C99.3178 76.4776 98.8449 77.1317 98.0036 77.0844C96.7168 77.0123 96.3259 75.9556 96.0254 74.8654C95.5836 73.2581 94.8478 72.5072 93.2756 73.6754C92.765 74.0553 92.116 74.0553 91.531 73.6971C90.8772 73.2975 90.4862 72.7292 90.5004 71.6755" fill="#C664E9"/></g></g><g id="Group 25"><mask id="mask2_723_2415154ea3deb-7b07-4d5e-8ab8-e2a5c336f430" style="mask-type:luminance" maskUnits="userSpaceOnUse" x="28" y="33" width="65" height="74" fill="#ffffff"><path id="Clip 24" fill-rule="evenodd" clip-rule="evenodd" d="M40.6437 33.521C34.7061 33.5308 29.1038 33.7716 28.9117 34.6339V34.6339C27.3997 41.4251 26.9899 50.7482 41.5283 58.0416V58.0416C44.3214 59.4417 47.3086 60.3386 50.3522 60.9463V60.9463C55.02 61.8768 59.7678 62.2596 64.4667 63.0124V63.0124C67.5772 63.5117 71.2314 63.3065 74.1517 63.1012V63.1012C76.8506 62.9128 78.923 62.7233 79.3592 63.0894V63.0894C80.5349 64.0741 78.7799 70.1815 78.567 71.6428V71.6428C78.0724 75.0448 77.5599 78.4617 77.3169 81.8923V81.8923C76.9156 87.535 76.9834 104.668 76.9834 104.668V104.668L85.4259 106.445C85.4259 106.445 91.68 77.2934 92.281 63.7238V63.7238C92.4817 59.2108 92.0568 55.6558 90.5675 54.2005V54.2005C89.4097 53.0668 87.6406 46.8873 66.9499 42.2796V42.2796C64.721 41.7843 54.728 33.8002 54.728 33.8002V33.8002C54.728 33.8002 48.0424 33.5318 41.4746 33.521V33.521" fill="#ffffff"/></mask><g mask="url(#mask2_723_2415154ea3deb-7b07-4d5e-8ab8-e2a5c336f430)"><path id="Fill 23" fill-rule="evenodd" clip-rule="evenodd" d="M94.1151 82.7081C93.4811 82.5285 92.4995 82.2986 91.5509 81.9661C90.8933 81.7362 90.4713 81.1639 90.6381 80.4279C90.8048 79.6938 91.4991 79.5567 92.1133 79.5083C93.677 79.386 95.2644 79.5695 96.7009 78.5907C97.5262 78.0303 98.4249 78.2779 99.1304 78.9844C99.6184 79.4718 99.6382 80.1477 99.3584 80.7239C98.7612 81.9562 97.5949 82.3233 96.4174 82.562C95.7862 82.6883 95.1259 82.6508 94.1151 82.7081" fill="#FF67FF"/></g></g><g id="Group 28"><mask id="mask3_723_2415154ea3deb-7b07-4d5e-8ab8-e2a5c336f430" style="mask-type:luminance" maskUnits="userSpaceOnUse" x="28" y="33" width="65" height="74" fill="#ffffff"><path id="Clip 27" fill-rule="evenodd" clip-rule="evenodd" d="M40.6437 33.521C34.7061 33.5308 29.1038 33.7716 28.9117 34.6339V34.6339C27.3997 41.4251 26.9899 50.7482 41.5283 58.0416V58.0416C44.3214 59.4417 47.3086 60.3386 50.3522 60.9463V60.9463C55.02 61.8768 59.7678 62.2596 64.4667 63.0124V63.0124C67.5772 63.5117 71.2314 63.3065 74.1517 63.1012V63.1012C76.8506 62.9128 78.923 62.7233 79.3592 63.0894V63.0894C80.5349 64.0741 78.7799 70.1815 78.567 71.6428V71.6428C78.0724 75.0448 77.5599 78.4617 77.3169 81.8923V81.8923C76.9156 87.535 76.9834 104.668 76.9834 104.668V104.668L85.4259 106.445C85.4259 106.445 91.68 77.2934 92.281 63.7238V63.7238C92.4817 59.2108 92.0568 55.6558 90.5675 54.2005V54.2005C89.4097 53.0668 87.6406 46.8873 66.9499 42.2796V42.2796C64.721 41.7843 54.728 33.8002 54.728 33.8002V33.8002C54.728 33.8002 48.0424 33.5318 41.4746 33.521V33.521" fill="#ffffff"/></mask><g mask="url(#mask3_723_2415154ea3deb-7b07-4d5e-8ab8-e2a5c336f430)"><path id="Fill 26" fill-rule="evenodd" clip-rule="evenodd" d="M90.7832 88.522C91.0536 88.2329 91.3117 87.7139 91.6772 87.6113C92.6324 87.3449 93.1524 88.1727 93.5273 88.8565C94.5183 90.6641 95.4001 92.5368 96.3054 94.3946C96.5673 94.9304 96.8631 95.5194 96.2988 96.0503C95.6356 96.6758 95.0431 96.1233 94.5278 95.8006C91.9692 94.2032 91.388 91.4593 90.7832 88.522" fill="#FF67FF"/></g></g><g id="Group 31"><mask id="mask4_723_2415154ea3deb-7b07-4d5e-8ab8-e2a5c336f430" style="mask-type:luminance" maskUnits="userSpaceOnUse" x="28" y="33" width="65" height="74" fill="#ffffff"><path id="Clip 30" fill-rule="evenodd" clip-rule="evenodd" d="M40.6437 33.521C34.7061 33.5308 29.1038 33.7716 28.9117 34.6339V34.6339C27.3997 41.4251 26.9899 50.7482 41.5283 58.0416V58.0416C44.3214 59.4417 47.3086 60.3386 50.3522 60.9463V60.9463C55.02 61.8768 59.7678 62.2596 64.4667 63.0124V63.0124C67.5772 63.5117 71.2314 63.3065 74.1517 63.1012V63.1012C76.8506 62.9128 78.923 62.7233 79.3592 63.0894V63.0894C80.5349 64.0741 78.7799 70.1815 78.567 71.6428V71.6428C78.0724 75.0448 77.5599 78.4617 77.3169 81.8923V81.8923C76.9156 87.535 76.9834 104.668 76.9834 104.668V104.668L85.4259 106.445C85.4259 106.445 91.68 77.2934 92.281 63.7238V63.7238C92.4817 59.2108 92.0568 55.6558 90.5675 54.2005V54.2005C89.4097 53.0668 87.6406 46.8873 66.9499 42.2796V42.2796C64.721 41.7843 54.728 33.8002 54.728 33.8002V33.8002C54.728 33.8002 48.0424 33.5318 41.4746 33.521V33.521" fill="#ffffff"/></mask><g mask="url(#mask4_723_2415154ea3deb-7b07-4d5e-8ab8-e2a5c336f430)"><path id="Fill 29" fill-rule="evenodd" clip-rule="evenodd" d="M92.6899 83.3632C95.8467 83.5033 97.7524 85.5595 97.4434 88.263C97.3737 88.8767 97.157 89.3582 96.5353 89.5151C95.9333 89.667 95.5292 89.3661 95.2381 88.8471C94.3714 87.3 93.5434 85.8082 91.3635 86.3795C90.6966 86.5531 89.8751 86.0835 90.0061 85.0573C90.2463 83.1886 91.7281 83.5467 92.6899 83.3632" fill="#C2F5FF"/></g></g><g id="Group 34"><mask id="mask5_723_2415154ea3deb-7b07-4d5e-8ab8-e2a5c336f430" style="mask-type:luminance" maskUnits="userSpaceOnUse" x="28" y="33" width="65" height="74" fill="#ffffff"><path id="Clip 33" fill-rule="evenodd" clip-rule="evenodd" d="M40.6437 33.521C34.7061 33.5308 29.1038 33.7716 28.9117 34.6339V34.6339C27.3997 41.4251 26.9899 50.7482 41.5283 58.0416V58.0416C44.3214 59.4417 47.3086 60.3386 50.3522 60.9463V60.9463C55.02 61.8768 59.7678 62.2596 64.4667 63.0124V63.0124C67.5772 63.5117 71.2314 63.3065 74.1517 63.1012V63.1012C76.8506 62.9128 78.923 62.7233 79.3592 63.0894V63.0894C80.5349 64.0741 78.7799 70.1815 78.567 71.6428V71.6428C78.0724 75.0448 77.5599 78.4617 77.3169 81.8923V81.8923C76.9156 87.535 76.9834 104.668 76.9834 104.668V104.668L85.4259 106.445C85.4259 106.445 91.68 77.2934 92.281 63.7238V63.7238C92.4817 59.2108 92.0568 55.6558 90.5675 54.2005V54.2005C89.4097 53.0668 87.6406 46.8873 66.9499 42.2796V42.2796C64.721 41.7843 54.728 33.8002 54.728 33.8002V33.8002C54.728 33.8002 48.0424 33.5318 41.4746 33.521V33.521" fill="#ffffff"/></mask><g mask="url(#mask5_723_2415154ea3deb-7b07-4d5e-8ab8-e2a5c336f430)"><path id="Fill 32" fill-rule="evenodd" clip-rule="evenodd" d="M85.4355 89.633C85.5947 89.037 85.4412 88.376 86.2796 88.2674C89.5023 87.8521 90.563 89.6863 90.5291 92.6828C90.5244 93.0952 90.2955 93.2619 89.8998 93.4474C85.8453 95.3478 85.8679 92.2102 85.4355 89.633" fill="#26B6E3"/></g></g><g id="Group 37"><mask id="mask6_723_2415154ea3deb-7b07-4d5e-8ab8-e2a5c336f430" style="mask-type:luminance" maskUnits="userSpaceOnUse" x="28" y="33" width="65" height="74" fill="#ffffff"><path id="Clip 36" fill-rule="evenodd" clip-rule="evenodd" d="M40.6437 33.521C34.7061 33.5308 29.1038 33.7716 28.9117 34.6339V34.6339C27.3997 41.4251 26.9899 50.7482 41.5283 58.0416V58.0416C44.3214 59.4417 47.3086 60.3386 50.3522 60.9463V60.9463C55.02 61.8768 59.7678 62.2596 64.4667 63.0124V63.0124C67.5772 63.5117 71.2314 63.3065 74.1517 63.1012V63.1012C76.8506 62.9128 78.923 62.7233 79.3592 63.0894V63.0894C80.5349 64.0741 78.7799 70.1815 78.567 71.6428V71.6428C78.0724 75.0448 77.5599 78.4617 77.3169 81.8923V81.8923C76.9156 87.535 76.9834 104.668 76.9834 104.668V104.668L85.4259 106.445C85.4259 106.445 91.68 77.2934 92.281 63.7238V63.7238C92.4817 59.2108 92.0568 55.6558 90.5675 54.2005V54.2005C89.4097 53.0668 87.6406 46.8873 66.9499 42.2796V42.2796C64.721 41.7843 54.728 33.8002 54.728 33.8002V33.8002C54.728 33.8002 48.0424 33.5318 41.4746 33.521V33.521" fill="#ffffff"/></mask><g mask="url(#mask6_723_2415154ea3deb-7b07-4d5e-8ab8-e2a5c336f430)"><path id="Fill 35" fill-rule="evenodd" clip-rule="evenodd" d="M95.3226 76.9268C95.2887 77.9806 94.7348 78.3496 93.9378 78.3219C92.7612 78.2795 92.0528 77.5592 92.083 76.3575C92.1074 75.3432 92.7574 74.6367 93.7899 74.7571C95.0353 74.9002 95.2746 75.9312 95.3226 76.9268" fill="#C2F5FF"/></g></g><g id="Group 46"><mask id="mask7_723_2415154ea3deb-7b07-4d5e-8ab8-e2a5c336f430" style="mask-type:luminance" maskUnits="userSpaceOnUse" x="28" y="33" width="65" height="74" fill="#ffffff"><path id="Clip 45" fill-rule="evenodd" clip-rule="evenodd" d="M40.6437 33.521C34.7061 33.5308 29.1038 33.7716 28.9117 34.6339V34.6339C27.3997 41.4251 26.9899 50.7482 41.5283 58.0416V58.0416C44.3214 59.4417 47.3086 60.3386 50.3522 60.9463V60.9463C55.02 61.8768 59.7678 62.2596 64.4667 63.0124V63.0124C67.5772 63.5117 71.2314 63.3065 74.1517 63.1012V63.1012C76.8506 62.9128 78.923 62.7233 79.3592 63.0894V63.0894C80.5349 64.0741 78.7799 70.1815 78.567 71.6428V71.6428C78.0724 75.0448 77.5599 78.4617 77.3169 81.8923V81.8923C76.9156 87.535 76.9834 104.668 76.9834 104.668V104.668L85.4259 106.445C85.4259 106.445 91.68 77.2934 92.281 63.7238V63.7238C92.4817 59.2108 92.0568 55.6558 90.5675 54.2005V54.2005C89.4097 53.0668 87.6406 46.8873 66.9499 42.2796V42.2796C64.721 41.7843 54.728 33.8002 54.728 33.8002V33.8002C54.728 33.8002 48.0424 33.5318 41.4746 33.521V33.521" fill="#ffffff"/></mask><g mask="url(#mask7_723_2415154ea3deb-7b07-4d5e-8ab8-e2a5c336f430)"><path id="Fill 44" fill-rule="evenodd" clip-rule="evenodd" d="M88.0925 98.6489C87.159 100.924 88.4138 103.015 89.1533 105.22C89.4632 106.146 88.9432 106.885 88.2706 107.423C87.7214 107.864 87.045 107.798 86.4751 107.468C85.8025 107.075 85.8948 106.389 85.9249 105.67C85.9494 105.093 85.7799 104.395 85.4586 103.934C84.5411 102.623 84.5571 101.404 85.3738 100.065C85.5773 99.7332 85.5604 99.1905 85.5076 98.7623C85.388 97.7845 84.3668 96.417 85.8543 96.0322C87.3276 95.6504 87.6083 97.2655 88.0925 98.6489" fill="#F28DFD"/></g></g><g id="Group 49"><path id="Fill 47" fill-rule="evenodd" clip-rule="evenodd" d="M84.3959 95.3429C83.3503 95.4278 83.0517 94.7332 82.9254 93.9517C82.7841 93.0706 83.3729 92.5546 84.054 92.4125C84.736 92.2704 85.3022 92.7352 85.3804 93.5077C85.4661 94.3533 85.2061 95.0736 84.3959 95.3429" fill="#FF67FF"/></g><g id="Group 52"><path id="Fill 50" fill-rule="evenodd" clip-rule="evenodd" d="M82.2862 86.8465C82.5801 87.6891 82.8373 88.5119 83.7595 88.953C82.8731 89.3812 82.5321 90.1577 82.2099 91.0704C81.8642 90.1972 81.4356 89.5193 80.6367 89.0684C81.5891 88.6047 81.933 87.7345 82.2862 86.8465" fill="#FF67FF"/></g><g id="Group 55"><path id="Fill 53" fill-rule="evenodd" clip-rule="evenodd" d="M81.4644 103.23C80.8935 101.793 80.1389 100.833 79.0801 100.046C80.3952 99.2543 81.0301 97.9982 81.5595 96.3258C82.0635 97.8828 82.4573 99.1852 83.9061 99.8611C82.559 100.56 82.007 101.712 81.4644 103.23" fill="#FED21C"/></g><g id="Group 58"><path id="Fill 56" fill-rule="evenodd" clip-rule="evenodd" d="M80.9322 93.2463C80.8804 93.2463 80.8277 93.2453 80.7758 93.2463C79.9506 93.2571 79.9064 93.3291 80.2332 94.1017C80.3246 94.3178 80.4103 94.5378 80.481 94.7608C80.5366 94.9344 80.5856 95.1495 80.3689 95.2275C80.1711 95.2995 80.1098 95.0943 80.0467 94.9502C79.9167 94.6523 79.8018 94.3474 79.6708 94.0504C79.538 93.7524 79.3675 93.7287 79.1716 93.9961C78.9606 94.2842 78.7514 94.5753 78.4698 94.7963C78.3812 94.8674 78.2964 94.9295 78.1956 94.8368C78.1052 94.7539 78.0939 94.6365 78.1579 94.5408C78.336 94.2714 78.531 94.0159 78.7119 93.7504C78.9634 93.3775 78.8946 93.2117 78.4594 93.1387C78.2192 93.0983 77.9761 93.0756 77.735 93.04C77.6295 93.0243 77.5174 92.9887 77.5258 92.8496C77.5343 92.7164 77.6483 92.67 77.7519 92.6651C78.0816 92.6503 78.4114 92.6523 78.742 92.6483C79.0303 92.6434 79.1113 92.4855 79.0124 92.2201C78.9116 91.9498 78.791 91.6873 78.6855 91.418C78.6139 91.2354 78.4914 90.9986 78.7241 90.8911C78.9737 90.7756 79.0208 91.0786 79.1075 91.2305C79.23 91.4486 79.3157 91.6903 79.4108 91.9241C79.5644 92.301 79.7471 92.4313 80.0213 92.0258C80.2012 91.7584 80.3896 91.4989 80.5818 91.2414C80.6967 91.0874 80.8192 90.8635 81.0387 91.0361C81.2346 91.19 81.1423 91.3884 81.0114 91.561C80.839 91.788 80.659 92.0119 80.5045 92.2517C80.3133 92.5497 80.4 92.7283 80.7466 92.748C80.9897 92.7628 81.2337 92.7559 81.4739 92.7855C81.6029 92.8013 81.7782 92.825 81.7612 93.0282C81.7461 93.2088 81.5992 93.2512 81.4532 93.2591C81.2798 93.267 81.1065 93.2611 80.9322 93.2611V93.2463Z" fill="#FED21C"/></g></g><g id="Group 73"><g id="Group 62"><mask id="mask8_723_2415154ea3deb-7b07-4d5e-8ab8-e2a5c336f430" style="mask-type:luminance" maskUnits="userSpaceOnUse" x="95" y="96" width="25" height="14" fill="#ffffff"><path id="Clip 61" fill-rule="evenodd" clip-rule="evenodd" d="M95.1289 96.1988H119.556V109.807H95.1289V96.1988Z" fill="#ffffff"/></mask><g mask="url(#mask8_723_2415154ea3deb-7b07-4d5e-8ab8-e2a5c336f430)"><path id="Fill 60" fill-rule="evenodd" clip-rule="evenodd" d="M119.502 103.46L97.1647 109.807C96.917 109.54 96.7092 109.12 96.5327 108.6C95.8761 106.676 95.654 103.371 95.4301 101.311C95.4054 101.069 95.3798 100.846 95.3523 100.645C95.3058 100.302 95.2593 100.02 95.2071 99.8174C94.782 98.2048 96.2281 98.0914 96.2281 98.0914C99.0947 99.7533 100.745 95.5714 102.538 96.2805C102.538 96.2805 102.61 96.3082 102.777 96.3812C102.929 96.4482 103.162 96.5528 103.487 96.7086C103.955 96.9315 104.615 97.2599 105.517 97.7304C107.726 98.8854 111.03 99.1241 113.891 99.5097C114.256 99.559 114.597 99.6152 114.916 99.6764C115.158 99.7227 115.389 99.773 115.607 99.8253C118.016 100.407 118.979 101.343 119.346 102.119C119.698 102.863 119.502 103.46 119.502 103.46" fill="#FF67FF"/></g></g><path id="Fill 63" fill-rule="evenodd" clip-rule="evenodd" d="M115.606 99.8257C115.156 100.465 114.127 101.781 113.1 102.073C113.056 102.085 113.01 102.098 112.965 102.106C112.224 102.248 109.203 101.645 106.713 101.023C105.285 100.667 103.968 100.291 103.005 99.9638C101.428 99.4272 101.104 99.1432 100.988 98.9154C100.551 98.0543 101.841 97.0019 102.777 96.3815C102.928 96.4476 103.161 96.5532 103.486 96.709C102.312 97.429 101.417 98.2891 101.551 98.5968C101.746 98.8325 103.343 99.5052 106.977 100.406C109.75 101.092 112.329 101.552 112.848 101.451C113.55 101.314 114.39 100.376 114.915 99.6768C115.158 99.7231 115.388 99.7725 115.606 99.8257" fill="#3B2D7E"/><g id="Group 67"><mask id="mask9_723_2415154ea3deb-7b07-4d5e-8ab8-e2a5c336f430" style="mask-type:luminance" maskUnits="userSpaceOnUse" x="96" y="102" width="24" height="8" fill="#ffffff"><path id="Clip 66" fill-rule="evenodd" clip-rule="evenodd" d="M96.5312 102.119H119.555V109.807H96.5312V102.119Z" fill="#ffffff"/></mask><g mask="url(#mask9_723_2415154ea3deb-7b07-4d5e-8ab8-e2a5c336f430)"><path id="Fill 65" fill-rule="evenodd" clip-rule="evenodd" d="M119.501 103.46L97.1642 109.807C96.9155 109.539 96.7087 109.12 96.5312 108.6L119.345 102.119C119.697 102.863 119.501 103.46 119.501 103.46" fill="#7E4DCD"/></g></g><path id="Fill 68" fill-rule="evenodd" clip-rule="evenodd" d="M98.7799 109.347C99.2353 108.373 99.538 106.99 99.0038 105.289C98.2921 103.025 96.5614 101.855 95.4294 101.311C95.4047 101.07 95.3781 100.845 95.3516 100.643C96.55 101.15 98.6745 102.399 99.5276 105.11C100.038 106.736 99.8417 108.112 99.4441 109.159L98.7799 109.347Z" fill="#3B2D7E"/><g id="Group 72"><path id="Fill 70" fill-rule="evenodd" clip-rule="evenodd" d="M94.1596 95.9786C94.1596 95.9786 86.8381 79.9729 84.7648 74.7436C82.6915 69.5162 78.9804 56.7781 78.9804 56.7781C78.9804 56.7781 66.6607 61.1031 53.1257 62C30.1223 63.5244 28.1732 62.881 26.976 55.9721C25.9994 50.3368 28.1613 40.1106 28.1613 40.1106L46.2545 38.6006C46.2545 38.6006 71.8126 41.5131 79.6256 42.6621C81.5063 42.9383 83.2124 43.3111 84.7429 43.7786C86.7119 44.3803 88.6276 47.355 90.3954 51.4826C95.7091 63.8874 102.526 93.6017 102.526 93.6017L94.1596 95.9786Z" fill="#7E4DCD"/></g></g><g id="Group 86"><g id="Group 76"><mask id="mask10_723_2415154ea3deb-7b07-4d5e-8ab8-e2a5c336f430" style="mask-type:luminance" maskUnits="userSpaceOnUse" x="28" y="38" width="75" height="58" fill="#ffffff"><path id="Clip 75" fill-rule="evenodd" clip-rule="evenodd" d="M28.1614 40.1037C28.1614 40.1037 28.0085 41.2165 28 42.9713V42.9713V43.2751C28.0361 50.9478 30.9203 69.4891 58.7396 63.9555V63.9555C72.981 61.1223 79.0066 56.7163 79.0066 56.7163V56.7163C79.0066 56.7163 82.7206 69.4124 84.7949 74.6216V74.6216C86.8684 79.8337 94.1937 95.7877 94.1937 95.7877V95.7877L102.564 93.4185C102.564 93.4185 95.7449 63.8021 90.4285 51.4383V51.4383C88.6598 47.3242 86.743 44.3594 84.7731 43.7607V43.7607C83.2418 43.2927 81.5339 42.9212 79.6532 42.6469V42.6469C71.8361 41.5026 46.2649 38.5987 46.2649 38.5987V38.5987" fill="#ffffff"/></mask><g mask="url(#mask10_723_2415154ea3deb-7b07-4d5e-8ab8-e2a5c336f430)"><path id="Fill 74" fill-rule="evenodd" clip-rule="evenodd" d="M89.1511 75.8262C89.7113 74.9307 89.9154 74.0302 90.9018 74.6112C91.609 75.028 92.1768 75.7083 91.6897 76.48C91.2473 77.1818 90.3644 77.8297 89.5214 77.4502C88.7097 77.0855 88.8397 76.2273 89.1511 75.8262" fill="#FED21C"/></g></g><g id="Group 79"><mask id="mask11_723_2415154ea3deb-7b07-4d5e-8ab8-e2a5c336f430" style="mask-type:luminance" maskUnits="userSpaceOnUse" x="28" y="38" width="75" height="58" fill="#ffffff"><path id="Clip 78" fill-rule="evenodd" clip-rule="evenodd" d="M28.1614 40.1037C28.1614 40.1037 28.0085 41.2165 28 42.9713V42.9713V43.2751C28.0361 50.9478 30.9203 69.4891 58.7396 63.9555V63.9555C72.981 61.1223 79.0066 56.7163 79.0066 56.7163V56.7163C79.0066 56.7163 82.7206 69.4124 84.7949 74.6216V74.6216C86.8684 79.8337 94.1937 95.7877 94.1937 95.7877V95.7877L102.564 93.4185C102.564 93.4185 95.7449 63.8021 90.4285 51.4383V51.4383C88.6598 47.3242 86.743 44.3594 84.7731 43.7607V43.7607C83.2418 43.2927 81.5339 42.9212 79.6532 42.6469V42.6469C71.8361 41.5026 46.2649 38.5987 46.2649 38.5987V38.5987" fill="#ffffff"/></mask><g mask="url(#mask11_723_2415154ea3deb-7b07-4d5e-8ab8-e2a5c336f430)"><path id="Fill 77" fill-rule="evenodd" clip-rule="evenodd" d="M89.9834 80.4621C89.4479 81.4068 88.7273 81.2652 88.0381 80.929C87.2615 80.5496 87.1932 79.7504 87.4723 79.0868C87.7533 78.4213 88.4473 78.2021 89.1014 78.5746C89.8191 78.9836 90.2378 79.6157 89.9834 80.4621" fill="#F28DFD"/></g></g><g id="Group 82"><mask id="mask12_723_2415154ea3deb-7b07-4d5e-8ab8-e2a5c336f430" style="mask-type:luminance" maskUnits="userSpaceOnUse" x="28" y="38" width="75" height="58" fill="#ffffff"><path id="Clip 81" fill-rule="evenodd" clip-rule="evenodd" d="M28.1614 40.1037C28.1614 40.1037 28.0085 41.2165 28 42.9713V42.9713V43.2751C28.0361 50.9478 30.9203 69.4891 58.7396 63.9555V63.9555C72.981 61.1223 79.0066 56.7163 79.0066 56.7163V56.7163C79.0066 56.7163 82.7206 69.4124 84.7949 74.6216V74.6216C86.8684 79.8337 94.1937 95.7877 94.1937 95.7877V95.7877L102.564 93.4185C102.564 93.4185 95.7449 63.8021 90.4285 51.4383V51.4383C88.6598 47.3242 86.743 44.3594 84.7731 43.7607V43.7607C83.2418 43.2927 81.5339 42.9212 79.6532 42.6469V42.6469C71.8361 41.5026 46.2649 38.5987 46.2649 38.5987V38.5987L28.1614 40.1037Z" fill="#ffffff"/></mask><g mask="url(#mask12_723_2415154ea3deb-7b07-4d5e-8ab8-e2a5c336f430)"><path id="Fill 80" fill-rule="evenodd" clip-rule="evenodd" d="M97.3681 72.3836C97.2789 72.3836 97.1897 72.3826 97.1004 72.3836C95.6887 72.4023 95.6137 72.5232 96.1729 73.8306C96.3286 74.1953 96.4757 74.5669 96.5972 74.9444C96.6903 75.2384 96.7748 75.6011 96.4045 75.7348C96.0666 75.8557 95.9621 75.5097 95.8529 75.2649C95.6308 74.7606 95.4343 74.2465 95.2102 73.7441C94.9833 73.2388 94.6919 73.1995 94.3567 73.6507C93.995 74.1383 93.6371 74.6299 93.1558 75.0064C93.0039 75.1253 92.8586 75.2305 92.6859 75.0732C92.5311 74.9336 92.5121 74.735 92.6213 74.5719C92.926 74.1187 93.2602 73.6851 93.5688 73.2349C94.0007 72.6058 93.883 72.3246 93.1368 72.2007C92.7267 72.1329 92.3109 72.0955 91.8988 72.0356C91.7175 72.009 91.5267 71.9481 91.5419 71.7112C91.5552 71.488 91.7507 71.4094 91.9273 71.4015C92.4912 71.3779 93.0561 71.3799 93.621 71.371C94.1156 71.3642 94.2523 71.0958 94.0843 70.6485C93.9105 70.1914 93.7055 69.7461 93.5241 69.2909C93.4007 68.9822 93.1928 68.5821 93.5906 68.4003C94.0169 68.2056 94.0985 68.7168 94.2457 68.9744C94.4564 69.342 94.6017 69.751 94.765 70.1471C95.0279 70.7851 95.3403 71.0053 95.8102 70.3182C96.1178 69.867 96.4397 69.4275 96.7681 68.993C96.9647 68.7315 97.1754 68.3531 97.5504 68.645C97.8846 68.9065 97.727 69.2427 97.5039 69.5337C97.2086 69.9171 96.902 70.2956 96.6362 70.7026C96.3086 71.2059 96.4577 71.5057 97.051 71.5421C97.4659 71.5657 97.8836 71.5549 98.2957 71.604C98.515 71.6306 98.815 71.6709 98.7855 72.0149C98.7599 72.3197 98.5083 72.3924 98.2596 72.4042C97.9624 72.419 97.6653 72.4072 97.3681 72.4072V72.3836Z" fill="#FED21C"/></g></g><g id="Group 85"><mask id="mask13_723_2415154ea3deb-7b07-4d5e-8ab8-e2a5c336f430" style="mask-type:luminance" maskUnits="userSpaceOnUse" x="28" y="38" width="75" height="58" fill="#ffffff"><path id="Clip 84" fill-rule="evenodd" clip-rule="evenodd" d="M30.7242 40.2616C30.7242 40.2616 28.0085 41.2165 28 42.9713V43.2751C28.0361 50.9478 30.9203 69.4891 58.7396 63.9555C72.981 61.1223 79.0066 56.7163 79.0066 56.7163C79.0066 56.7163 82.7206 69.4124 84.7949 74.6216C86.8684 79.8337 94.1937 95.7877 94.1937 95.7877L102.564 93.4185C102.564 93.4185 95.7449 63.8021 90.4285 51.4383C88.6598 47.3242 86.743 44.3594 84.7731 43.7607C83.2418 43.2927 81.5339 42.9212 79.6532 42.6469C71.8361 41.5026 46.2649 38.5987 46.2649 38.5987L30.7242 40.2616Z" fill="#ffffff"/></mask><g mask="url(#mask13_723_2415154ea3deb-7b07-4d5e-8ab8-e2a5c336f430)"><path id="Fill 83" fill-rule="evenodd" clip-rule="evenodd" d="M88.9727 83.9632C89.4065 83.7588 89.8746 83.7843 90.3274 83.7519C91.6821 83.6536 93.0388 83.5769 94.3945 83.4855C94.5673 83.4737 94.8084 83.5739 94.8825 83.3282C94.9442 83.1217 94.7553 82.9812 94.6366 82.8367C93.7252 81.7307 92.81 80.6268 91.8967 79.5218C91.7334 79.3242 91.572 79.1247 91.3537 78.8582C91.8682 78.7629 92.191 79.0195 92.5138 79.1915C93.6151 79.7813 94.7087 80.3879 95.7891 81.017C96.2068 81.2598 96.392 81.2254 96.5116 80.7034C96.879 79.1001 97.3394 77.5233 97.8606 75.9661C97.9204 75.7872 97.9432 75.5857 98.1483 75.4952C98.3942 75.6358 98.2897 75.8826 98.2983 76.0801C98.3771 77.7749 98.3401 79.4736 98.4796 81.1674C98.5271 81.7553 98.6856 81.8015 99.1594 81.5862C100.595 80.9335 102.042 80.3092 103.49 79.6889C103.784 79.5631 104.076 79.3901 104.587 79.4569C104.052 79.9258 103.615 80.322 103.164 80.7015C102.182 81.5262 101.205 82.3589 100.204 83.1571C99.7632 83.5091 99.7821 83.688 100.282 83.9455C101.665 84.6592 103.028 85.4142 104.399 86.1535C104.582 86.2518 104.795 86.3088 104.933 86.5772C104.638 86.7128 104.351 86.6558 104.064 86.6165C102.67 86.4277 101.273 86.2695 99.8856 86.0375C99.3008 85.9401 99.1518 86.1043 99.1584 86.6951C99.1765 88.5374 99.1451 90.3806 99.1299 92.2228C99.128 92.4047 99.1945 92.6111 98.9714 92.7792C98.6363 92.3447 98.5223 91.8188 98.3685 91.3351C97.9689 90.0709 97.6128 88.789 97.2863 87.5032C97.1306 86.8868 96.9312 86.933 96.5761 87.3272C95.4255 88.6003 94.2663 89.8655 93.109 91.1326C93.017 91.2339 92.9125 91.3233 92.7701 91.4619C92.5736 90.7571 93.0122 90.2764 93.203 89.7642C93.6217 88.6426 94.1306 87.5524 94.6603 86.4798C94.8967 86.0001 94.7894 85.8645 94.3318 85.7396C92.7265 85.3002 91.1287 84.8322 89.5309 84.3614C89.3277 84.3024 89.0429 84.3279 88.9727 83.9632" fill="#FF67FF"/></g></g></g></g><path id="Path 2" fill-rule="evenodd" clip-rule="evenodd" d="M28 41.0551L29.1483 32.8026L50.2122 33L60 41.0551L44.7149 42L28 41.0551Z" fill="#7E4DCD"/></g></g><g id="Head" transform="translate(33 40) scale(1 1)"><g id="Head/Short Hair Pink"><path id="Fill 1" fill-rule="evenodd" clip-rule="evenodd" d="M53.1321 34.2246C53.0581 33.7686 52.7431 33.3926 52.3821 33.1166C50.8201 31.9216 48.8401 31.7566 47.4231 30.2616C46.9711 29.7856 46.5881 29.2446 46.1101 28.7966C45.4961 28.2196 44.7411 27.8116 43.9491 27.5296C38.6791 25.6536 28.5541 30.1536 29.1651 36.6116C29.2841 37.8666 29.7761 39.0686 29.8531 40.3266C29.9531 41.9676 29.3461 43.6276 29.6821 45.2366C29.8581 46.0756 30.2811 46.8406 30.6991 47.5916C31.5371 49.0986 33.3551 52.0396 35.0361 52.7546C35.1631 52.8096 35.3081 52.8536 35.4361 52.8006C35.5701 52.7446 35.6401 52.5996 35.6941 52.4646C36.5141 50.3776 35.3091 48.0336 34.7601 45.9176C34.3081 44.1726 34.1481 42.7506 34.9351 41.1396C35.6341 39.7076 35.7221 38.6676 35.8641 37.0026C36.1131 34.0826 41.8731 33.6466 43.2741 34.7776C45.2371 36.3636 46.2151 35.4156 47.3971 35.5176C48.0461 35.5726 48.6271 36.1266 49.0261 36.6186C48.8101 36.7266 49.5511 37.2016 49.5511 37.2016L49.3581 43.2126C51.9371 41.3626 50.4691 36.9386 50.4671 36.9296C51.6821 36.3046 53.3151 35.3436 53.1321 34.2246Z" fill="#E252C5"/><g id="Group 24"><path id="Fill 3" fill-rule="evenodd" clip-rule="evenodd" d="M43.8888 53.8614L43.6868 61.5304C43.6208 64.2234 41.9268 65.6234 39.2768 65.5384C37.0138 65.4654 34.9268 64.2284 34.7188 61.9744L35.6168 49.9214L43.8888 53.8614Z" fill="#cdd6f2"/><path id="Fill 6" fill-rule="evenodd" clip-rule="evenodd" d="M43.7642 57.6016C38.3972 57.6066 34.9902 51.2266 34.9902 51.2266L43.9252 53.0766L43.7642 57.6016Z" fill="#00023C" fill-opacity="0.18"/><path id="Fill 16" fill-rule="evenodd" clip-rule="evenodd" d="M41.5446 54.0892V54.0892C46.0226 54.1032 49.7206 50.5762 49.8546 46.9192L50.1186 38.2902C50.2856 33.7062 47.3636 29.8172 42.7886 29.4982C38.1046 29.1722 32.6476 32.6492 32.3206 37.3322L32.1846 44.2752C32.0786 49.6452 36.1866 53.7162 41.5446 54.0892" fill="#cdd6f2"/><path id="Fill 18" fill-rule="evenodd" clip-rule="evenodd" d="M28.0037 43.4388C27.8697 45.3588 29.3177 47.0238 31.2387 47.1568C33.1587 47.2908 34.8237 45.8418 34.9567 43.9218C35.0907 42.0018 33.6427 40.3368 31.7217 40.2038C29.8017 40.0698 28.1367 41.5178 28.0037 43.4388" fill="#cdd6f2"/><path id="Fill 20" fill-rule="evenodd" clip-rule="evenodd" d="M32.6233 44.7982C32.6233 44.7982 32.7983 42.2772 30.3613 42.5072Z" fill="#00023C" fill-opacity="0.18"/></g><path id="Fill 17" fill-rule="evenodd" clip-rule="evenodd" d="M51.0231 38.5832C49.4541 39.5712 47.4081 38.8002 45.7521 37.9672C43.7031 36.9372 41.6911 35.8312 39.7221 34.6552C40.0271 35.4162 40.3851 36.5012 39.8741 37.2542C39.3601 38.0122 38.1151 38.1172 37.2941 38.1462C36.6311 38.1682 35.8291 38.3962 35.6821 39.0432C35.6111 39.3582 35.7271 39.6902 35.6821 40.0122C35.6381 40.3242 35.4311 40.6092 35.1481 40.7492C34.9321 40.8552 34.6741 40.8832 34.4891 41.0372C33.9791 41.4612 34.4031 42.6162 34.4341 43.1672C34.4651 43.7382 34.4111 44.3842 33.9771 44.7582C33.8751 44.3542 33.4301 44.1572 33.1471 43.8542C32.9141 43.6042 32.7871 43.2742 32.6761 42.9522C32.3781 42.0852 32.1941 41.2062 32.0011 40.3122C31.8371 39.5582 31.4051 39.0372 31.0431 38.3732C29.2081 35.0112 30.7511 31.3982 33.6501 29.2882C35.6821 27.8082 38.2291 27.2182 40.7291 26.9532C42.3261 26.7852 44.0251 26.7552 45.4401 27.5172C46.3771 28.0212 47.1071 28.8322 47.8161 29.6272C48.8101 30.7402 49.8041 31.8542 50.7971 32.9672C51.4841 33.7352 52.1861 34.5302 52.5371 35.5002C52.8871 36.4702 52.8081 37.6682 52.0691 38.3882C51.8471 38.6042 51.1521 38.8652 51.0231 38.5832" fill="#E252C5"/></g></g><g id="Expression" transform="translate(64 76) scale(1 1)"><g id="Expression/Blushing"><g id="Group 34"><path id="Fill 1" fill-rule="evenodd" clip-rule="evenodd" d="M12.505 9.0644C12.576 9.2104 12.652 9.3534 12.722 9.5004C12.744 9.5454 12.765 9.5924 12.786 9.6394C12.792 9.6524 12.831 9.7444 12.8 9.6714C12.809 9.6924 12.817 9.7124 12.826 9.7334C12.863 9.8284 12.898 9.9234 12.922 10.0224C12.928 10.0434 12.933 10.0654 12.938 10.0864C12.94 10.0964 12.953 10.1744 12.944 10.1194C12.937 10.0644 12.945 10.1354 12.945 10.1454C12.946 10.1634 12.943 10.1814 12.945 10.1994C12.947 10.2154 12.966 10.1224 12.946 10.1824C12.926 10.2454 12.966 10.1474 12.957 10.1664C12.926 10.2194 13.026 10.1004 12.961 10.1624C12.937 10.1844 12.915 10.2084 12.891 10.2294C12.876 10.2424 12.877 10.2414 12.896 10.2264C12.881 10.2374 12.866 10.2484 12.851 10.2574C12.824 10.2754 12.796 10.2924 12.767 10.3064C12.758 10.3114 12.674 10.3514 12.723 10.3304C12.693 10.3424 12.662 10.3544 12.63 10.3644C12.5 10.4094 12.365 10.4374 12.231 10.4614C12.081 10.4904 11.982 10.6794 12.027 10.8204C12.079 10.9804 12.225 11.0524 12.385 11.0234C12.711 10.9624 13.034 10.8674 13.292 10.6494C13.394 10.5624 13.48 10.4584 13.51 10.3254C13.538 10.2024 13.526 10.0824 13.504 9.9594C13.428 9.5384 13.192 9.1514 13.007 8.7714C12.94 8.6334 12.734 8.5854 12.609 8.6674C12.468 8.7574 12.433 8.9184 12.505 9.0644" fill="#00023C" fill-opacity="0.18"/><path id="Fill 3" fill-rule="evenodd" clip-rule="evenodd" d="M9.92512 6.7206C9.92512 6.7206 10.1811 7.8506 9.34512 7.5746C8.50812 7.2986 5.59912 6.4156 5.59912 6.4156C5.59912 6.4156 7.08012 4.0376 9.92512 6.7206" fill="#EFF2F9"/><path id="Fill 5" fill-rule="evenodd" clip-rule="evenodd" d="M10.2311 6.4042C10.2191 6.3742 10.2101 6.3422 10.1961 6.3112C9.42105 4.6262 7.11305 4.5642 5.69905 5.3962C5.58805 5.4622 5.46005 5.5302 5.33505 5.4972C5.24805 5.4732 5.18005 5.4052 5.11705 5.3392C4.90405 5.1142 4.62305 4.6442 4.25505 4.7522C4.06405 4.8082 4.03605 4.8812 4.00405 5.0192C3.95005 5.2532 4.45105 5.5492 4.58605 5.6742C4.86105 5.9272 5.12505 6.1772 5.44905 6.3802C5.49405 6.4072 5.54105 6.4342 5.59205 6.4422C5.67905 6.4542 5.76205 6.4092 5.83205 6.3572C6.21905 6.0712 6.44405 5.7342 6.92805 5.5652C7.18105 5.4762 7.53805 5.4162 7.78605 5.5472C7.69905 5.9892 7.29005 6.4872 7.06805 6.8882L9.60105 7.6732C9.60105 7.6732 10.5821 7.1992 10.2311 6.4042" fill="#2A0952"/><path id="Fill 7" fill-rule="evenodd" clip-rule="evenodd" d="M17.6476 8.4491L13.5806 8.0491C13.5806 8.0491 15.1466 5.9611 16.7216 6.5871C18.2966 7.2121 17.6476 8.4491 17.6476 8.4491" fill="#EFF2F9"/><g id="Group 11"><mask id="mask0_723_156814c64d16a-7d3f-4b5a-bcf0-40ae52b9563c" style="mask-type:luminance" maskUnits="userSpaceOnUse" x="13" y="6" width="7" height="3" fill="#ffffff"><path id="Clip 10" fill-rule="evenodd" clip-rule="evenodd" d="M13.1777 6.06192H19.4291V8.4493H13.1777V6.06192Z" fill="#ffffff"/></mask><g mask="url(#mask0_723_156814c64d16a-7d3f-4b5a-bcf0-40ae52b9563c)"><path id="Fill 9" fill-rule="evenodd" clip-rule="evenodd" d="M19.2513 6.6483C19.0823 6.5583 18.9233 6.6173 18.7823 6.7243C18.5483 6.9023 18.2513 7.2493 17.9743 7.0353C17.7183 6.8363 17.5823 6.5743 17.2693 6.4133C16.7153 6.1273 16.0433 6.0253 15.4253 6.0733C14.5523 6.1393 13.6223 6.5413 13.2403 7.3783C13.1663 7.5423 13.1483 7.7413 13.2393 7.8963C13.3303 8.0503 13.5483 8.1313 13.7003 8.0373C13.7673 7.9963 13.8133 7.9293 13.8563 7.8643C14.3023 7.2073 15.2733 6.4073 16.1303 6.7793C16.0013 7.2653 15.5853 7.7713 15.3503 8.2223L17.6473 8.4493C17.6473 8.4493 18.0463 8.1923 18.0823 7.7823C18.1313 7.7553 18.1803 7.7323 18.2313 7.7213C18.4753 7.4283 18.8903 7.4403 19.1623 7.1983C19.2513 7.1113 19.3403 7.0243 19.4293 6.9363C19.4263 6.8053 19.4143 6.7353 19.2513 6.6483" fill="#2A0952"/></g></g><path id="Fill 12" fill-rule="evenodd" clip-rule="evenodd" d="M9.54102 11.331C9.69702 11.434 9.88102 11.655 9.98202 11.735C10.417 12.079 10.909 12.362 11.449 12.505C11.85 12.611 12.27 12.636 12.681 12.582C12.881 12.556 13.08 12.511 13.272 12.446C13.418 12.398 13.608 12.308 13.762 12.304C13.836 12.302 13.914 12.328 13.963 12.384C14.019 12.446 14.066 12.519 14.1 12.595C14.105 12.75 14.03 12.873 13.941 12.991C13.718 13.099 13.455 13.109 13.211 13.142C12.938 13.176 12.665 13.204 12.39 13.224C12.208 13.237 12.025 13.247 11.843 13.238C11.33 13.212 10.782 13.045 10.321 12.818C10.109 12.715 9.91102 12.556 9.72102 12.415C9.62202 12.341 9.52402 12.265 9.42902 12.185C9.35902 12.127 9.18302 12.019 9.15202 11.935C9.12502 11.865 9.10002 11.795 9.07302 11.726C9.06202 11.695 9.17502 11.493 9.19402 11.458C9.23502 11.384 9.29702 11.286 9.39202 11.277C9.43502 11.272 9.48602 11.295 9.54102 11.331" fill="#2A0952"/><path id="Fill 14" fill-rule="evenodd" clip-rule="evenodd" d="M8.70975 4.162C9.45375 4.062 9.44575 2.962 8.70275 2.85C8.05675 2.754 7.23275 2.755 6.74675 3.235C5.85575 4.113 7.88975 4.253 8.68675 4.165C8.69375 4.164 8.70175 4.164 8.70975 4.162" fill="#2A0952"/><path id="Fill 16" fill-rule="evenodd" clip-rule="evenodd" d="M16.236 5.1083C15.654 4.8713 15.893 3.9803 16.518 4.0463C17.063 4.1043 17.73 4.2793 18.024 4.7703C18.56 5.6703 16.882 5.3543 16.255 5.1163C16.249 5.1133 16.242 5.1113 16.236 5.1083" fill="#2A0952"/><path id="Fill 18" fill-rule="evenodd" clip-rule="evenodd" d="M8.28715 10.0898C8.02715 10.4538 7.61815 10.7068 7.18015 10.8118C6.67415 10.9318 6.13715 10.8668 5.64815 10.6918C5.32815 10.5758 5.01815 10.4078 4.79515 10.1518C4.40915 9.7098 4.38315 8.8958 4.51215 8.3468C4.58915 8.0178 4.78015 7.7028 5.07415 7.5358C5.50615 7.2908 5.97615 7.2728 6.45015 7.3598C6.86915 7.4378 7.29315 7.5268 7.66715 7.7308C8.41215 8.1388 8.81015 9.1358 8.39615 9.9138C8.36415 9.9758 8.32715 10.0338 8.28715 10.0898" fill="#FF37B8" fill-opacity="0.5"/><path id="Fill 20" fill-rule="evenodd" clip-rule="evenodd" d="M5.19178 9.4374C5.14078 9.4374 5.08878 9.4214 5.04478 9.3894C4.93278 9.3074 4.90878 9.1514 4.98978 9.0404L5.64678 8.1404C5.72878 8.0294 5.88578 8.0054 5.99578 8.0854C6.10778 8.1674 6.13178 8.3244 6.05078 8.4354L5.39378 9.3344C5.34478 9.4024 5.26878 9.4374 5.19178 9.4374" fill="#FFD0F6"/><path id="Fill 22" fill-rule="evenodd" clip-rule="evenodd" d="M7.09498 10.1884H7.08098C6.94298 10.1804 6.83798 10.0624 6.84498 9.9244L6.90798 8.8124C6.91498 8.6744 7.02698 8.5884 7.17098 8.5764C7.30898 8.5844 7.41398 8.7024 7.40698 8.8394L7.34498 9.9524C7.33698 10.0854 7.22698 10.1884 7.09498 10.1884" fill="#FFD0F6"/><path id="Fill 24" fill-rule="evenodd" clip-rule="evenodd" d="M5.97134 9.9071C5.93234 9.9071 5.89334 9.8981 5.85734 9.8801C5.73434 9.8161 5.68534 9.6661 5.74934 9.5431L6.32934 8.4131C6.39134 8.2901 6.54333 8.2421 6.66533 8.3041C6.78834 8.3681 6.83733 8.5181 6.77333 8.6411L6.19334 9.7711C6.14934 9.8571 6.06134 9.9071 5.97134 9.9071" fill="#FFD0F6"/><path id="Fill 26" fill-rule="evenodd" clip-rule="evenodd" d="M14.9899 11.2167C15.2079 11.5227 15.5509 11.7347 15.9179 11.8207C16.3409 11.9217 16.7909 11.8677 17.2009 11.7207C17.4689 11.6237 17.7289 11.4847 17.9159 11.2697C18.2389 10.8987 18.2609 10.2167 18.1529 9.7567C18.0879 9.4807 17.9279 9.2177 17.6819 9.0777C17.3199 8.8717 16.9259 8.8567 16.5289 8.9297C16.1779 8.9947 15.8229 9.0697 15.5099 9.2397C14.8849 9.5817 14.5519 10.4167 14.8989 11.0697C14.9259 11.1207 14.9559 11.1697 14.9899 11.2167" fill="#FF37B8" fill-opacity="0.5"/><path id="Fill 28" fill-rule="evenodd" clip-rule="evenodd" d="M17.5839 10.7108C17.5069 10.7108 17.4309 10.6758 17.3819 10.6078L16.8319 9.8548C16.7499 9.7428 16.7739 9.5868 16.8859 9.5048C16.9959 9.4248 17.1529 9.4458 17.2349 9.5598L17.7859 10.3138C17.8669 10.4248 17.8429 10.5808 17.7309 10.6628C17.6869 10.6948 17.6349 10.7108 17.5839 10.7108" fill="#FFD0F6"/><path id="Fill 30" fill-rule="evenodd" clip-rule="evenodd" d="M15.9889 11.3398C15.8569 11.3398 15.7469 11.2368 15.7389 11.1038L15.6869 10.1718C15.6789 10.0338 15.7849 9.9158 15.9229 9.9078C16.0789 9.9218 16.1789 10.0068 16.1859 10.1448L16.2389 11.0758C16.2459 11.2138 16.1409 11.3318 16.0029 11.3398H15.9889Z" fill="#FFD0F6"/><path id="Fill 32" fill-rule="evenodd" clip-rule="evenodd" d="M16.9298 11.1044C16.8398 11.1044 16.7518 11.0544 16.7078 10.9684L16.2218 10.0224C16.1588 9.8994 16.2068 9.7494 16.3298 9.6854C16.4538 9.6244 16.6038 9.6714 16.6658 9.7934L17.1518 10.7404C17.2158 10.8634 17.1668 11.0134 17.0438 11.0774C17.0078 11.0954 16.9688 11.1044 16.9298 11.1044" fill="#FFD0F6"/></g></g></g><g id="Upper Body" transform="translate(7 41) scale(1 1)"><g id="Upper Body/Cheers 3"><g id="Group"><path id="Fill 10" fill-rule="evenodd" clip-rule="evenodd" d="M146.622 55.7335L141.379 56.4105C140.121 56.5725 138.948 55.7425 138.684 54.5015L136.871 45.9965L148.337 44.5155L148.744 53.2025C148.803 54.4695 147.88 55.5705 146.622 55.7335" fill="#C664E9"/><path id="Stroke 13" fill-rule="evenodd" clip-rule="evenodd" d="M137.916 46.9003L139.526 54.7988L139.276 54.9213C139.136 54.9902 138.901 55.0895 138.604 55.1884C138.154 55.3378 137.705 55.4344 137.277 55.4524C136.276 55.4945 135.514 55.0964 135.198 54.1524C135.063 53.7497 134.929 53.302 134.796 52.8166C134.591 52.0694 134.398 51.2702 134.222 50.4712C134.161 50.1916 134.106 49.932 134.059 49.6989L134 49.404L134.002 49.2591C134.076 48.9229 134.327 48.4571 134.86 48.0059C135.49 47.4722 136.386 47.0978 137.584 46.9431L137.916 46.9003ZM138.706 54.3846L137.345 47.7076L137.169 47.7409C136.363 47.9047 135.759 48.1881 135.325 48.5553C135.012 48.8201 134.837 49.0761 134.754 49.2669L134.722 49.3496L134.926 50.3169C135.098 51.1046 135.289 51.8922 135.49 52.626C135.62 53.0994 135.751 53.5348 135.881 53.9241C136.082 54.5247 136.538 54.7629 137.246 54.7331C137.599 54.7183 137.986 54.6351 138.377 54.5052C138.482 54.4701 138.578 54.4352 138.663 54.4023L138.706 54.3846Z" fill="#C664E9"/><path id="Fill 3" fill-rule="evenodd" clip-rule="evenodd" d="M71.9727 56.9516C79.4397 57.1856 107.036 70.8866 107.036 70.8866L130.192 51.8396C130.192 51.8396 131.411 48.6806 134.223 48.5876C137.036 48.4936 137.786 48.4936 137.129 52.8056C136.473 57.1186 133.567 57.3056 131.411 57.0246C131.411 57.0246 118.449 78.5832 107.036 80C95.6218 81.4167 75.9731 67.6783 75.9731 67.6783L71.9727 56.9516Z" fill="#cdd6f2"/><path id="Fill 5" fill-rule="evenodd" clip-rule="evenodd" d="M87.2213 59.5738C90.9153 61.5278 94.6083 63.8208 98.7673 64.2198C98.2073 65.4868 97.0313 66.4668 95.6823 66.7878C96.2823 68.0998 96.0053 69.7638 95.0133 70.8108C94.0213 71.8588 85.9483 77.9038 84.2063 78.3218C83.0543 78.5978 81.6483 78.8028 80.8553 77.9238C80.3623 77.3778 80.2883 76.5868 80.1933 75.8568C79.4963 70.5328 74.1423 64.7658 73.8643 59.3798C73.6053 54.3718 83.7193 57.7208 87.2213 59.5738" fill="#974CCD"/></g><path id="Fill 7" fill-rule="evenodd" clip-rule="evenodd" d="M56.3475 57.6226L50.2835 58.8496L44.7835 79.5676C44.7835 79.5676 44.0565 117.079 46.1325 117.442C48.0465 117.776 81.6585 116.217 87.1015 110.8L82.0645 85.3806C82.0645 85.3806 82.5865 81.2846 82.3055 74.5346C82.0235 67.7846 76.5335 58.5676 75.9705 56.9276L73.6815 56.4756C73.6815 56.4756 72.7915 59.8276 71.9605 60.8766C70.3825 62.8686 67.9705 64.2416 65.4105 64.3656C61.3355 64.5646 57.3285 61.5836 56.3475 57.6226" fill="#974CCD"/><g id="Group 29"><path id="Fill 1" fill-rule="evenodd" clip-rule="evenodd" d="M64.413 56.1871C66.362 56.4031 68.374 56.2561 70.246 55.6911C71.896 56.1611 75.97 56.9271 75.97 56.9271C75.956 58.4081 74.105 61.1591 73.075 62.2221C72.145 63.1831 70.912 63.7971 69.652 64.2461C67.308 65.0821 64.742 65.4001 62.309 64.8761C59.875 64.3531 57.594 62.9361 56.272 60.8271C55.841 60.1381 54.535 59.1251 54.571 58.3141C54.571 58.3141 60.137 56.2081 61.788 55.4351C62.928 55.7941 63.223 56.0551 64.413 56.1871" fill="#cdd6f2"/></g><g id="Group 50"><path id="Fill 1" fill-rule="evenodd" clip-rule="evenodd" d="M64.414 56.2112C66.362 56.4272 68.374 56.2802 70.246 55.7152C71.896 56.1852 75.971 56.9512 75.971 56.9512C75.957 58.4322 74.105 61.1832 73.076 62.2462C72.145 63.2072 70.912 63.8212 69.652 64.2712C67.309 65.1062 64.742 65.4242 62.31 64.9002C59.876 64.3772 57.595 62.9602 56.273 60.8512C55.842 60.1622 54.536 59.1492 54.571 58.3382C54.571 58.3382 60.137 56.2322 61.788 55.4602C62.929 55.8192 63.224 56.0802 64.414 56.2112" fill="#cdd6f2"/><path id="Fill 7" fill-rule="evenodd" clip-rule="evenodd" d="M132.924 52.6849C132.922 52.6849 132.921 52.6839 132.92 52.6839C132.887 52.6729 132.868 52.6359 132.879 52.6029C133.375 51.0959 133.375 48.8089 133.374 48.7869C133.375 48.7499 133.403 48.7219 133.439 48.7219C133.474 48.7209 133.503 48.7499 133.504 48.7859C133.504 48.8089 133.504 51.1169 133.001 52.6429C132.99 52.6749 132.956 52.6939 132.924 52.6849" fill="#cdd6f2"/><path id="Fill 19" fill-rule="evenodd" clip-rule="evenodd" d="M52.1717 72.1966L53.1527 74.2578C56.3744 83.7768 60.5744 93.2437 64.9292 101.902C71.9221 104.008 78.9828 105.894 86.0967 107.548C88.3043 108.061 91.308 108.043 93.3489 108.797C95.1232 109.451 96.2197 111.112 95.2103 112.82C94.0716 114.743 90.4176 114.348 88.6259 114.422C82.7697 114.659 76.8961 114.306 71.0904 113.53C67.2834 113.028 63.546 112.344 59.9277 111.543C58.0003 111.114 56.3396 109.891 55.3677 108.173C53.117 104.195 51.154 100.348 49.4785 96.8062C45.3509 88.0629 42.7069 82.4078 41.9951 80.052C40.5304 75.1896 43.1616 65.3462 48.7824 64.4945C48.7824 64.4945 49.3466 71.1308 52.1717 72.1966Z" fill="#cdd6f2"/><g id="Group 23"><mask id="mask0_723_24890b73aff5f-8a66-4e08-b7f8-a818c7132ffa" style="mask-type:luminance" maskUnits="userSpaceOnUse" x="91" y="106" width="16" height="10" fill="#ffffff"><path id="Clip 22" fill-rule="evenodd" clip-rule="evenodd" d="M91 106H106.188V115.369H91V106Z" fill="#ffffff"/></mask><g mask="url(#mask0_723_24890b73aff5f-8a66-4e08-b7f8-a818c7132ffa)"><path id="Fill 21" fill-rule="evenodd" clip-rule="evenodd" d="M102.621 115.278C101.223 115.661 97.175 114.714 95.953 114.696C94.736 114.675 91 113.263 91 113.263L91.146 109.451C91.146 109.451 91.442 108.63 94.131 107.776C96.816 106.918 101.368 105.52 101.831 106.165C102.276 106.79 99.455 108.587 98.843 108.948L98.784 108.981C98.748 109.001 98.763 109.016 98.821 109.037C99.493 109.233 106.05 109.257 106.183 110.063C106.22 110.308 106.065 110.802 105.792 111.388C105.772 111.428 105.754 111.468 105.73 111.51C105.523 111.941 105.257 112.415 104.961 112.877C104.937 112.92 104.912 112.958 104.882 112.999C104.583 113.456 104.253 113.9 103.925 114.274C103.888 114.312 103.855 114.348 103.822 114.385C103.401 114.846 102.981 115.182 102.621 115.278" fill="#cdd6f2"/></g></g><path id="Fill 24" fill-rule="evenodd" clip-rule="evenodd" d="M95.6219 111.324C95.6209 111.323 95.6209 111.322 95.6199 111.321C95.6039 111.289 95.6179 111.25 95.6499 111.234C97.0779 110.544 98.7219 108.954 98.7379 108.937C98.7639 108.913 98.8049 108.914 98.8289 108.939C98.8529 108.964 98.8529 109.005 98.8279 109.03C98.8109 109.047 97.1519 110.651 95.7059 111.35C95.6759 111.366 95.6389 111.353 95.6219 111.324" fill="#cdd6f2"/><path id="Fill 26" fill-rule="evenodd" clip-rule="evenodd" d="M105.73 111.51L99.575 110.788C99.553 110.782 99.537 110.774 99.527 110.756C99.519 110.742 99.519 110.731 99.52 110.712C99.525 110.68 99.554 110.657 99.591 110.66L105.792 111.388C105.772 111.428 105.753 111.468 105.73 111.51" fill="#cdd6f2"/><path id="Fill 28" fill-rule="evenodd" clip-rule="evenodd" d="M104.881 112.998L99.5629 112.23C99.5439 112.229 99.5249 112.216 99.5149 112.198C99.5099 112.189 99.5069 112.174 99.5059 112.162C99.5139 112.122 99.5419 112.1 99.5789 112.102L104.96 112.876C104.937 112.919 104.911 112.957 104.881 112.998" fill="#cdd6f2"/><path id="Fill 30" fill-rule="evenodd" clip-rule="evenodd" d="M103.822 114.385L99.1455 113.718C99.1255 113.712 99.1055 113.699 99.0975 113.686C99.0915 113.672 99.0875 113.656 99.0915 113.643C99.0965 113.61 99.1285 113.581 99.1625 113.591L103.925 114.274C103.887 114.312 103.855 114.348 103.822 114.385" fill="#cdd6f2"/><path id="Fill 48" fill-rule="evenodd" clip-rule="evenodd" d="M138.993 57.0951C138.986 57.2821 138.831 57.4271 138.644 57.4201C138.459 57.4141 138.313 57.2581 138.32 57.0731C138.326 56.8871 138.482 56.7411 138.668 56.7471C138.853 56.7541 138.999 56.9091 138.993 57.0951" fill="#FCFCFC"/></g><path id="Fill 27" fill-rule="evenodd" clip-rule="evenodd" d="M42.7937 87.7631C41.7217 87.6391 40.0687 70.8421 41.6587 67.1111C42.6167 64.8621 43.7417 62.6161 45.5197 60.9371C47.2967 59.2591 49.8557 58.2311 52.2247 58.8341C54.9817 63.2061 56.4617 68.2001 58.0917 73.0611C58.8867 75.4301 61.2667 81.9381 61.2667 81.9381C58.7727 85.6591 43.3627 82.6441 43.3627 82.6441L42.7937 87.7631Z" fill="#974CCD"/></g></g></g></g><g id="Desk"><g id="Plant"><path id="Fill 185" fill-rule="evenodd" clip-rule="evenodd" d="M89.1964 156.91C89.0954 155.719 88.9934 154.017 88.9294 152.823C88.8244 150.837 88.7414 148.848 88.6644 146.86C88.6364 146.158 88.8664 145.923 89.5684 145.802C90.4144 145.654 91.2714 145.59 92.1264 145.535C92.6584 145.5 93.1844 145.39 93.7174 145.373C93.8774 145.368 94.4214 145.369 94.5474 145.487C94.6084 145.545 94.5714 146.036 94.5344 146.037C93.3584 146.068 92.1774 145.958 91.0094 146.175C90.7844 146.217 90.4454 146.207 90.4094 146.433C90.3594 146.742 90.7494 146.666 90.9304 146.785C90.9804 146.817 91.0544 146.813 91.1174 146.824C92.7764 147.099 94.4364 147.371 96.1274 147.207C97.3384 147.089 98.5424 146.929 99.7304 146.665C99.9274 146.622 100.216 146.563 100.196 146.304C100.17 145.976 99.8524 146.043 99.6314 146.042C98.1944 146.035 96.7574 146.04 95.3204 146.04C95.2114 145.88 95.2224 145.709 95.2754 145.534C96.1244 145.218 96.9744 145.554 97.8224 145.53C98.5674 145.576 99.3124 145.629 100.058 145.663C102.563 145.778 100.965 156.068 100.896 156.876L89.1964 156.91Z" fill="#FF67FF"/><path id="Fill 187" fill-rule="evenodd" clip-rule="evenodd" d="M94.5347 146.037C94.6057 146.242 94.5977 146.451 94.5727 146.664C94.5407 146.941 94.7067 147.038 94.9517 147.054C95.2227 147.072 95.3397 146.931 95.3367 146.674C95.3357 146.463 95.3267 146.252 95.3207 146.041C96.7577 146.04 98.1947 146.035 99.6317 146.042C99.8527 146.043 100.171 145.976 100.197 146.305C100.217 146.563 99.9277 146.622 99.7307 146.665C98.5427 146.929 97.3387 147.089 96.1277 147.207C94.4357 147.371 92.7767 147.099 91.1177 146.824C91.0547 146.813 90.9807 146.817 90.9307 146.785C90.7497 146.666 90.3597 146.742 90.4097 146.433C90.4457 146.207 90.7847 146.217 91.0097 146.175C92.1777 145.958 93.3587 146.068 94.5347 146.037" fill="#503890"/><path id="Fill 189" fill-rule="evenodd" clip-rule="evenodd" d="M95.2527 141.008C94.9497 141.444 94.7157 141.908 94.5907 142.426L94.5697 142.452C93.9757 141.862 93.9687 141.126 94.0477 140.366C94.0637 140.221 94.1287 140.127 94.2617 140.078C94.9917 139.811 95.2997 139.146 95.6787 138.555C95.8077 138.354 96.0297 138.085 95.7657 137.865C95.5137 137.656 95.2387 137.832 94.9997 137.987C94.7207 138.169 94.5667 138.507 94.2277 138.647C94.1097 137.613 94.1667 137.502 94.9797 137.064C95.4167 136.828 95.8317 136.563 96.1317 136.153C96.2697 135.964 96.3197 135.763 96.1997 135.552C96.0847 135.35 95.8807 135.388 95.6877 135.369C95.3247 135.335 95.1017 135.679 94.7247 135.726C94.7647 135.081 95.0217 134.574 95.3407 134.089C95.6617 133.603 95.9167 133.081 96.0907 132.528C96.1597 132.31 96.1877 132.035 95.9087 131.909C95.6487 131.792 95.5237 132.012 95.3857 132.173C94.9597 132.672 94.7777 133.295 94.5277 133.928C94.3177 133.726 94.2887 133.485 94.1957 133.274C94.0587 132.96 93.9167 132.648 93.7557 132.346C93.6607 132.168 93.5027 132.024 93.2837 132.133C93.0937 132.229 93.1207 132.43 93.1757 132.591C93.3227 133.015 93.3557 133.5 93.6567 133.845C94.3967 134.687 94.1687 135.557 93.7947 136.574C93.5387 136.07 93.3087 135.665 92.9687 135.34C92.8097 135.188 92.6277 135.128 92.4427 135.197C92.2197 135.281 92.2177 135.526 92.2677 135.698C92.3817 136.097 92.4257 136.508 92.8037 136.822C93.1317 137.096 93.5487 137.393 93.5757 137.884C93.6227 138.747 93.3607 139.595 93.4697 140.472C93.1907 140.253 93.0187 140 92.7897 139.819C92.3217 139.448 92.1777 138.996 92.2297 138.41C92.2777 137.858 92.2467 137.291 92.0827 136.751C91.9967 136.471 91.9167 136.119 91.5117 136.174C91.0997 136.23 91.0377 136.556 91.0697 136.904C91.1167 137.4 91.1747 137.894 91.2317 138.425C90.6427 138.242 90.4277 137.96 90.4797 137.361C90.5297 136.776 90.4127 136.164 90.1207 135.617C90.0067 135.406 89.8437 135.279 89.6017 135.326C89.3537 135.375 89.3627 135.598 89.3387 135.787C89.2597 136.397 89.3257 137.029 89.4057 137.636C89.0287 137.755 87.8257 137.106 87.6737 137.8C87.6147 138.074 87.8387 138.171 88.0227 138.272C88.4387 138.499 88.8957 138.426 89.3427 138.438C89.6727 138.446 90.0457 138.559 90.1597 138.829C90.2857 139.13 89.8777 139.166 89.6787 139.296C89.5147 139.403 89.3487 139.529 89.4147 139.757C89.4677 139.944 89.6377 140.002 89.8167 140.022C90.3077 140.075 90.7997 140.125 91.2767 139.949C91.5967 139.832 91.8607 139.897 92.0867 140.145C93.0857 141.233 93.8167 142.465 94.1427 143.918C94.0957 143.971 94.0477 144.024 94.0017 144.076C93.4907 143.797 93.1947 143.25 92.6657 142.998C92.3977 142.871 92.0727 142.703 91.8417 142.984C91.6037 143.275 91.9197 143.503 92.0867 143.694C92.6757 144.362 93.4387 144.785 94.2447 145.136C94.7427 145.307 94.4907 145.719 94.5347 146.036C94.6057 146.241 94.5977 146.45 94.5727 146.663C94.5407 146.941 94.7067 147.037 94.9507 147.053C95.2227 147.071 95.3387 146.93 95.3367 146.673C95.3357 146.462 95.3267 146.251 95.3207 146.039C95.2107 145.879 95.2217 145.708 95.2757 145.533C95.3347 145.341 95.1667 144.923 95.1337 144.723C95.0827 144.414 95.0377 144.101 95.0597 143.788C95.1057 143.144 95.5027 142.61 95.8177 142.067C95.9577 141.824 96.3027 141.238 96.1857 140.945C96.0107 140.508 95.4447 140.733 95.2527 141.008" fill="#C664E9"/><path id="Fill 191" fill-rule="evenodd" clip-rule="evenodd" d="M93.2091 152.638C93.2081 152.602 92.8441 152.33 92.7961 152.248C92.7131 152.104 92.6791 151.945 92.6971 151.78C92.7471 151.331 93.0171 151.147 93.4081 151.027C93.9021 150.876 93.7541 150.159 94.2661 149.94C94.6871 149.759 95.1661 149.985 95.4521 150.302C95.8131 150.363 96.1991 150.074 96.5691 150.325C96.7871 150.473 96.9151 150.677 96.9601 150.945C97.0021 151.194 96.8571 151.42 96.9061 151.672C96.9641 151.79 97.0791 151.867 97.1731 151.961C97.6671 152.462 97.4141 153.305 96.7501 153.397C96.7021 153.404 96.6551 153.411 96.6411 153.413C96.3401 153.459 96.2211 154.139 95.9871 154.315C95.8391 154.426 95.6731 154.522 95.4901 154.547C95.0301 154.611 94.9561 154.201 94.6241 154.032C94.4811 154.073 94.3211 154.121 94.1591 154.166C93.7221 154.285 93.4331 154.133 93.2731 153.71C93.1821 153.469 93.0991 153.237 93.2101 152.973C93.2491 152.881 93.2111 152.758 93.2091 152.638" fill="#4DDEFF"/><path id="Fill 193" fill-rule="evenodd" clip-rule="evenodd" d="M95.5963 152.395C95.5963 152.69 95.3573 152.929 95.0623 152.929C94.7663 152.929 94.5273 152.69 94.5273 152.395C94.5273 152.099 94.7663 151.86 95.0623 151.86C95.3573 151.86 95.5963 152.099 95.5963 152.395" fill="#EFF2F9"/></g><path id="Fill 167" fill-rule="evenodd" clip-rule="evenodd" d="M179.254 156.472H129.377C129.265 156.472 129.175 156.382 129.175 156.271C129.175 154.722 130.43 153.467 131.979 153.467H179.254C179.365 153.467 179.455 153.557 179.455 153.668V156.271C179.455 156.382 179.365 156.472 179.254 156.472" fill="#8A60E2"/><path id="Fill 169" fill-rule="evenodd" clip-rule="evenodd" d="M195.907 128.912L189.681 155.242C189.515 155.944 188.889 156.439 188.168 156.439H149.818C148.814 156.439 148.074 155.503 148.304 154.526L154.53 128.197C154.696 127.495 155.322 127 156.043 127H194.393C195.397 127 196.138 127.936 195.907 128.912" fill="#432C82"/><path id="Fill 171" fill-rule="evenodd" clip-rule="evenodd" d="M188.729 153.785H154.429C154.273 153.785 154.147 153.66 154.147 153.505C154.147 153.349 154.273 153.223 154.429 153.223H188.729C188.884 153.223 189.01 153.349 189.01 153.505C189.01 153.66 188.884 153.785 188.729 153.785" fill="#FF67FF"/><path id="Fill 173" fill-rule="evenodd" clip-rule="evenodd" d="M170.515 141.986C170.556 143.934 173.858 146.375 173.858 146.375C173.858 146.375 177.692 143.934 178.158 141.986C178.663 139.874 176.251 139.225 174.464 140.818C173.025 139.225 170.471 139.874 170.515 141.986" fill="#FF67FF"/><path id="Fill 175" fill-rule="evenodd" clip-rule="evenodd" d="M157.562 127L150.934 156.439H149.817C148.813 156.439 148.073 155.503 148.304 154.526L154.529 128.197C154.695 127.495 155.321 127 156.042 127H157.562Z" fill="#8A60E2"/><path id="Fill 177" fill-rule="evenodd" clip-rule="evenodd" d="M192.867 158.557V160.583C192.867 161.749 192.162 162.694 191.293 162.694H81.7839C80.9149 162.694 80.2109 161.749 80.2109 160.583V158.557C80.2109 157.391 80.9149 156.447 81.7839 156.447H191.293C192.162 156.447 192.867 157.391 192.867 158.557" fill="#FFB700"/><path id="Fill 179" fill-rule="evenodd" clip-rule="evenodd" d="M185.178 167.902H91.0367C88.1467 167.902 85.8037 165.559 85.8037 162.67H190.411C190.411 165.559 188.068 167.902 185.178 167.902" fill="#EA9800"/><path id="Fill 181" fill-rule="evenodd" clip-rule="evenodd" d="M86.259 241.797L104.082 167.902H97.822L80 241.797H86.259Z" fill="#FFB700"/><path id="Fill 183" fill-rule="evenodd" clip-rule="evenodd" d="M191.468 241.797L173.646 167.902H179.905L197.727 241.797H191.468Z" fill="#FFB700"/></g></g></svg>